<?xml version="1.0" encoding="UTF-8" standalone="no"?>
<!DOCTYPE svg PUBLIC "-//W3C//DTD SVG 1.1//EN" "http://www.w3.org/Graphics/SVG/1.1/DTD/svg11.dtd">
<svg width="100%" height="100%" viewBox="0 0 211 102" version="1.1" xmlns="http://www.w3.org/2000/svg" xmlns:xlink="http://www.w3.org/1999/xlink" xml:space="preserve" xmlns:serif="http://www.serif.com/" style="fill-rule:evenodd;clip-rule:evenodd;stroke-miterlimit:1.5;">
    <g transform="matrix(1,0,0,1,-4629.68,-515.133)">
        <g transform="matrix(1,0,0,1,3749.68,0)">
            <g transform="matrix(0.944,0,0,0.885552,-3479.22,63.0703)">
                <rect x="4617.82" y="510.855" width="211.864" height="112.924" style="fill:none;"/>
            </g>
        </g>
        <g transform="matrix(1,0,0,1,3749.68,0)">
            <g transform="matrix(1,0,0,1,1.36424e-12,59.961)">
                <g transform="matrix(1.00575,0,0,1,-2520.39,1.8437)">
                    <path d="M3430.98,503.856L3579.79,503.856" style="fill:none;stroke:white;stroke-width:11.97px;"/>
                </g>
                <g transform="matrix(1.00995,0,0,1.19152,-2386.69,-163.242)">
                    <path d="M3317.67,544.215C3317.67,538.656 3312.35,534.144 3305.79,534.144L3265.19,534.144C3258.64,534.144 3253.31,538.656 3253.31,544.215L3253.31,578.625C3253.31,584.183 3258.64,588.696 3265.19,588.696L3305.79,588.696C3312.35,588.696 3317.67,584.183 3317.67,578.625L3317.67,544.215Z" style="fill:rgb(115,115,115);"/>
                    <path d="M3327.57,544.215C3327.57,534.024 3317.81,525.751 3305.79,525.751L3265.19,525.751C3253.17,525.751 3243.41,534.024 3243.41,544.215C3243.41,544.215 3243.41,578.625 3243.41,578.625C3243.41,588.815 3253.17,597.089 3265.19,597.089C3265.19,597.089 3305.79,597.089 3305.79,597.089C3317.81,597.089 3327.57,588.815 3327.57,578.625L3327.57,544.215ZM3317.67,544.215C3317.67,538.656 3312.35,534.144 3305.79,534.144L3265.19,534.144C3258.64,534.144 3253.31,538.656 3253.31,544.215L3253.31,578.625C3253.31,584.183 3258.64,588.696 3265.19,588.696L3305.79,588.696C3312.35,588.696 3317.67,584.183 3317.67,578.625L3317.67,544.215Z" style="fill:white;"/>
                </g>
            </g>
        </g>
    </g>
</svg>
