<?xml version="1.0" encoding="UTF-8" standalone="no"?>
<!DOCTYPE svg PUBLIC "-//W3C//DTD SVG 1.1//EN" "http://www.w3.org/Graphics/SVG/1.1/DTD/svg11.dtd">
<svg width="100%" height="100%" viewBox="0 0 107 107" version="1.1" xmlns="http://www.w3.org/2000/svg" xmlns:xlink="http://www.w3.org/1999/xlink" xml:space="preserve" xmlns:serif="http://www.serif.com/" style="fill-rule:evenodd;clip-rule:evenodd;stroke-linejoin:round;stroke-miterlimit:2;">
    <g transform="matrix(1,0,0,1,-4005.23,-534.737)">
        <g transform="matrix(1,0,0,1,1674.35,0)">
            <g transform="matrix(0.55278,0,0,0.55278,77.9279,223.885)">
                <path d="M4172.16,562.343C4225.42,562.343 4268.65,605.579 4268.65,658.834C4268.65,712.089 4225.42,755.326 4172.16,755.326C4118.91,755.326 4075.67,712.089 4075.67,658.834C4075.67,605.579 4118.91,562.343 4172.16,562.343ZM4172.16,577.304C4217.16,577.304 4253.69,613.837 4253.69,658.834C4253.69,703.832 4217.16,740.365 4172.16,740.365C4127.16,740.365 4090.63,703.832 4090.63,658.834C4090.63,613.837 4127.16,577.304 4172.16,577.304Z" style="fill:rgb(89,89,89);"/>
            </g>
        </g>
        <g transform="matrix(1,0,0,1,1674.35,0)">
            <g transform="matrix(0.342056,0,0,0.625386,980.333,184.677)">
                <path d="M4114.88,586.778C4114.88,583.569 4110.11,580.964 4104.25,580.964C4098.38,580.964 4093.62,583.569 4093.62,586.778L4093.62,649.567C4093.62,652.776 4098.38,655.382 4104.25,655.382C4110.11,655.382 4114.88,652.776 4114.88,649.567L4114.88,586.778Z" style="fill:rgb(89,89,89);"/>
            </g>
        </g>
        <g transform="matrix(1,0,0,1,1674.35,0)">
            <g transform="matrix(2.26615e-17,0.37009,-0.436712,2.67409e-17,2663.96,-930.863)">
                <path d="M4114.88,589.973C4114.88,585 4110.11,580.964 4104.25,580.964C4098.38,580.964 4093.62,585 4093.62,589.973L4093.62,646.372C4093.62,651.345 4098.38,655.382 4104.25,655.382C4110.11,655.382 4114.88,651.345 4114.88,646.372L4114.88,589.973Z" style="fill:rgb(89,89,89);"/>
            </g>
        </g>
    </g>
</svg>
