<?xml version="1.0" encoding="UTF-8" standalone="no"?>
<!DOCTYPE svg PUBLIC "-//W3C//DTD SVG 1.1//EN" "http://www.w3.org/Graphics/SVG/1.1/DTD/svg11.dtd">
<svg width="100%" height="100%" viewBox="0 0 233 233" version="1.1" xmlns="http://www.w3.org/2000/svg" xmlns:xlink="http://www.w3.org/1999/xlink" xml:space="preserve" xmlns:serif="http://www.serif.com/" style="fill-rule:evenodd;clip-rule:evenodd;stroke-linejoin:round;stroke-miterlimit:2;">
    <g transform="matrix(1,0,0,1,-3990.67,-243.752)">
        <g transform="matrix(1,0,0,1,1674.35,0)">
            <g transform="matrix(0.855019,0,0,0.855019,335.624,21.7306)">
                <circle cx="2452.78" cy="395.901" r="124.537" style="fill:rgb(139,202,255);"/>
            </g>
            <g transform="matrix(0.855019,0,0,0.855019,335.624,21.7306)">
                <path d="M2452.78,259.669C2377.6,259.669 2316.55,320.713 2316.55,395.901C2316.55,471.09 2377.6,532.134 2452.78,532.134C2527.97,532.134 2589.02,471.09 2589.02,395.901C2589.02,320.713 2527.97,259.669 2452.78,259.669ZM2452.78,271.364C2521.52,271.364 2577.32,327.168 2577.32,395.901C2577.32,464.635 2521.52,520.438 2452.78,520.438C2384.05,520.438 2328.25,464.635 2328.25,395.901C2328.25,327.168 2384.05,271.364 2452.78,271.364Z" style="fill:white;"/>
            </g>
            <g transform="matrix(1,0,0,1,-9.09495e-13,-5.36753)">
                <clipPath id="_clip1">
                    <circle cx="2432.8" cy="360.234" r="106.482"/>
                </clipPath>
                <g clip-path="url(#_clip1)">
                    <g transform="matrix(0.887531,0,0,0.887531,336.486,13.4325)">
                        <g transform="matrix(0.397816,0,0,0.397816,2260,282.154)">
                            <path d="M372.152,140.434C372.152,116.02 352.75,96.148 328.523,95.367L328.523,83.715L387.73,83.715C412.641,83.715 432.836,103.906 432.836,128.816L432.836,214.445C432.836,217.086 430.691,219.227 428.051,219.227C397.176,219.227 372.148,194.199 372.148,163.328L372.148,140.434L372.152,140.434Z" style="fill:rgb(255,163,0);fill-rule:nonzero;"/>
                        </g>
                        <g transform="matrix(0.397816,0,0,0.397816,2260,282.154)">
                            <path d="M346.762,113.316L351.055,113.316C357.867,113.316 363.387,107.793 363.387,100.984L363.387,83.652C363.387,76.844 357.863,71.32 351.055,71.32L346.762,71.32C339.949,71.32 334.43,76.844 334.43,83.652L334.43,100.984C334.43,107.793 339.949,113.316 346.762,113.316Z" style="fill:rgb(221,82,152);fill-rule:nonzero;"/>
                        </g>
                        <g transform="matrix(0.397816,0,0,0.397816,2260,282.154)">
                            <path d="M387.73,83.715L360.152,83.715C385.063,83.715 405.254,103.906 405.254,128.816L405.254,214.367C412.219,217.48 419.93,219.227 428.051,219.227C430.691,219.227 432.836,217.086 432.836,214.441L432.836,128.816C432.836,103.906 412.641,83.715 387.73,83.715Z" style="fill:rgb(255,139,0);fill-rule:nonzero;"/>
                        </g>
                        <g transform="matrix(0.397816,0,0,0.397816,2260,282.154)">
                            <path d="M350.742,71.32L347.07,71.32C345.992,71.32 344.953,71.473 343.953,71.727C349.426,73.117 353.477,78.059 353.477,83.965L353.477,100.676C353.477,106.578 349.426,111.523 343.953,112.914C344.953,113.168 345.992,113.316 347.07,113.316L350.742,113.316C357.727,113.316 363.387,107.656 363.387,100.676L363.387,83.965C363.387,76.98 357.727,71.32 350.742,71.32Z" style="fill:rgb(201,63,132);fill-rule:nonzero;"/>
                        </g>
                        <g transform="matrix(0.397816,0,0,0.397816,2260,282.154)">
                            <path d="M141.141,140.434C141.141,116.02 160.539,96.148 184.766,95.367L184.766,83.715L125.559,83.715C100.648,83.715 80.453,103.906 80.453,128.816L80.453,214.445C80.453,217.086 82.598,219.227 85.238,219.227C116.113,219.227 141.141,194.199 141.141,163.328L141.141,140.434Z" style="fill:rgb(255,163,0);fill-rule:nonzero;"/>
                        </g>
                        <g transform="matrix(0.397816,0,0,0.397816,2260,282.154)">
                            <path d="M157.188,95.367C132.961,96.148 113.559,116.02 113.559,140.434L113.559,163.328C113.559,186.078 99.961,205.641 80.453,214.367L80.453,214.445C80.453,217.086 82.598,219.227 85.238,219.227C116.113,219.227 141.141,194.199 141.141,163.328L141.141,140.434C141.141,116.02 160.539,96.148 184.766,95.367L157.188,95.367Z" style="fill:rgb(255,139,0);fill-rule:nonzero;"/>
                        </g>
                        <g transform="matrix(0.397816,0,0,0.397816,2260,282.154)">
                            <path d="M166.527,113.316L162.234,113.316C155.426,113.316 149.902,107.793 149.902,100.984L149.902,83.652C149.902,76.844 155.426,71.32 162.234,71.32L166.527,71.32C173.34,71.32 178.859,76.844 178.859,83.652L178.859,100.984C178.859,107.793 173.34,113.316 166.527,113.316Z" style="fill:rgb(221,82,152);fill-rule:nonzero;"/>
                        </g>
                        <g transform="matrix(0.397816,0,0,0.397816,2260,282.154)">
                            <path d="M166.219,71.32L162.547,71.32C161.469,71.32 160.426,71.473 159.43,71.727C164.898,73.117 168.953,78.059 168.953,83.965L168.953,100.676C168.953,106.578 164.898,111.523 159.43,112.914C160.426,113.168 161.469,113.316 162.547,113.316L166.219,113.316C173.199,113.316 178.859,107.656 178.859,100.676L178.859,83.965C178.859,76.98 173.199,71.32 166.219,71.32Z" style="fill:rgb(201,63,132);fill-rule:nonzero;"/>
                        </g>
                        <g transform="matrix(0.397816,0,0,0.397816,2260,282.154)">
                            <path d="M357.371,147.473L355.461,147.473L355.461,132.078C355.461,83.984 316.473,45 268.383,45L245.172,45C197.078,45 158.094,83.984 158.094,132.078L158.094,147.473L153.805,147.473C143.516,147.473 135.176,155.816 135.176,166.105L135.176,174.695C135.176,188.992 146.766,200.582 161.063,200.582C162.195,200.582 163.305,200.465 164.383,200.27C177.262,232.266 208.566,254.859 245.172,254.859L268.383,254.859C304.953,254.859 336.238,232.301 349.141,200.352C350.09,200.488 351.055,200.582 352.047,200.582C366.16,200.582 377.602,189.141 377.602,175.027L377.602,167.707C377.605,156.531 368.547,147.473 357.371,147.473Z" style="fill:rgb(255,197,178);fill-rule:nonzero;"/>
                        </g>
                        <g transform="matrix(0.397816,0,0,0.397816,2260,282.154)">
                            <path d="M357.371,147.473L355.461,147.473L355.461,132.078C355.461,83.984 316.473,45 268.383,45L245.172,45C244.77,45 244.379,45.023 243.98,45.031C291.52,45.672 329.863,84.387 329.863,132.078L329.863,167.781C329.863,215.473 291.52,254.188 243.98,254.828C244.379,254.836 244.77,254.859 245.172,254.859L268.383,254.859C304.953,254.859 336.238,232.301 349.141,200.352C350.09,200.488 351.055,200.582 352.047,200.582C366.16,200.582 377.602,189.141 377.602,175.027L377.602,167.707C377.605,156.531 368.547,147.473 357.371,147.473Z" style="fill:rgb(255,174,146);fill-rule:nonzero;"/>
                        </g>
                        <g transform="matrix(0.397816,0,0,0.397816,2260,282.154)">
                            <path d="M228.18,108.582L285.375,108.582C314.117,108.582 339.602,122.516 355.461,143.992L355.461,132.078C355.461,83.984 316.477,45 268.383,45L245.172,45C197.078,45 158.094,83.984 158.094,132.078L158.094,143.992C173.953,122.516 199.434,108.582 228.18,108.582Z" style="fill:rgb(255,163,0);fill-rule:nonzero;"/>
                        </g>
                        <g transform="matrix(0.397816,0,0,0.397816,2260,282.154)">
                            <path d="M268.383,45L245.172,45C241.969,45 238.809,45.184 235.695,45.523C272.762,49.535 302.828,76.801 311.051,112.434C329.035,117.977 344.531,129.195 355.461,143.992L355.461,132.078C355.461,83.984 316.473,45 268.383,45Z" style="fill:rgb(255,139,0);fill-rule:nonzero;"/>
                        </g>
                        <g transform="matrix(0.397816,0,0,0.397816,2260,282.154)">
                            <path d="M231.184,159.266C231.184,165.582 226.063,170.703 219.742,170.703C213.426,170.703 208.305,165.582 208.305,159.266C208.305,152.945 213.426,147.824 219.742,147.824C226.063,147.824 231.184,152.945 231.184,159.266Z" style="fill:rgb(188,105,63);fill-rule:nonzero;"/>
                        </g>
                        <g transform="matrix(0.397816,0,0,0.397816,2260,282.154)">
                            <path d="M305.246,159.266C305.246,165.582 300.129,170.703 293.809,170.703C287.492,170.703 282.371,165.582 282.371,159.266C282.371,152.945 287.492,147.824 293.809,147.824C300.129,147.824 305.246,152.945 305.246,159.266Z" style="fill:rgb(188,105,63);fill-rule:nonzero;"/>
                        </g>
                        <g transform="matrix(0.397816,0,0,0.397816,2260,282.154)">
                            <path d="M256.777,225.477C276.629,225.477 292.973,210.465 295.082,191.176C295.328,188.922 293.563,186.941 291.293,186.941L222.262,186.941C219.992,186.941 218.227,188.922 218.473,191.176C220.582,210.465 236.926,225.477 256.777,225.477Z" style="fill:white;fill-rule:nonzero;"/>
                        </g>
                        <g transform="matrix(0.397816,0,0,0.397816,2260,282.154)">
                            <path d="M491.766,361.164L489.855,361.164L489.855,345.77C489.855,297.676 450.871,258.691 402.777,258.691L379.566,258.691C331.477,258.691 292.488,297.676 292.488,345.77L292.488,361.164L288.203,361.164C277.91,361.164 269.57,369.508 269.57,379.797L269.57,388.387C269.57,402.684 281.16,414.273 295.457,414.273C296.594,414.273 297.699,414.156 298.777,413.961C311.656,445.953 342.965,468.551 379.566,468.551L402.777,468.551C439.352,468.551 470.637,445.992 483.535,414.043C484.488,414.18 485.453,414.273 486.441,414.273C500.559,414.273 512,402.832 512,388.719L512,381.398C512,370.223 502.941,361.164 491.766,361.164Z" style="fill:rgb(255,197,178);fill-rule:nonzero;"/>
                        </g>
                        <g transform="matrix(0.397816,0,0,0.397816,2260,282.154)">
                            <path d="M491.766,361.164L489.855,361.164L489.855,345.77C489.855,297.676 450.871,258.691 402.777,258.691L379.566,258.691C379.168,258.691 378.773,258.715 378.375,258.723C425.914,259.363 464.262,298.078 464.262,345.77L464.262,381.473C464.262,429.164 425.914,467.879 378.375,468.52C378.773,468.527 379.168,468.551 379.566,468.551L402.777,468.551C439.352,468.551 470.637,445.992 483.535,414.043C484.488,414.18 485.453,414.273 486.441,414.273C500.559,414.273 512,402.832 512,388.719L512,381.398C512,370.223 502.941,361.164 491.766,361.164Z" style="fill:rgb(255,174,146);fill-rule:nonzero;"/>
                        </g>
                        <g transform="matrix(0.397816,0,0,0.397816,2260,282.154)">
                            <path d="M362.574,322.273L419.77,322.273C448.516,322.273 473.996,336.207 489.855,357.684L489.855,345.77C489.855,297.676 450.871,258.691 402.777,258.691L379.566,258.691C331.477,258.691 292.488,297.676 292.488,345.77L292.488,357.684C308.348,336.207 333.832,322.273 362.574,322.273Z" style="fill:rgb(255,197,13);fill-rule:nonzero;"/>
                        </g>
                        <g transform="matrix(0.397816,0,0,0.397816,2260,282.154)">
                            <path d="M365.578,372.953C365.578,379.273 360.457,384.395 354.141,384.395C347.824,384.395 342.703,379.273 342.703,372.953C342.703,366.637 347.824,361.516 354.141,361.516C360.457,361.516 365.578,366.637 365.578,372.953Z" style="fill:rgb(37,126,223);fill-rule:nonzero;"/>
                        </g>
                        <g transform="matrix(0.397816,0,0,0.397816,2260,282.154)">
                            <path d="M439.645,372.953C439.645,379.273 434.523,384.395 428.207,384.395C421.891,384.395 416.77,379.273 416.77,372.953C416.77,366.637 421.891,361.516 428.207,361.516C434.523,361.516 439.645,366.637 439.645,372.953Z" style="fill:rgb(37,126,223);fill-rule:nonzero;"/>
                        </g>
                        <g transform="matrix(0.397816,0,0,0.397816,2260,282.154)">
                            <path d="M391.172,439.168C411.023,439.168 427.367,424.156 429.477,404.867C429.723,402.609 427.957,400.633 425.688,400.633L356.656,400.633C354.391,400.633 352.621,402.609 352.867,404.867C354.977,424.156 371.32,439.168 391.172,439.168Z" style="fill:white;fill-rule:nonzero;"/>
                        </g>
                        <g transform="matrix(0.397816,0,0,0.397816,2260,282.154)">
                            <path d="M222.195,361.164L220.285,361.164L220.285,345.77C220.285,297.676 181.301,258.691 133.207,258.691L109.996,258.691C61.902,258.691 22.918,297.676 22.918,345.77L22.918,361.164L18.633,361.164C8.34,361.164 0,369.508 0,379.797L0,388.387C0,402.684 11.59,414.273 25.887,414.273C27.023,414.273 28.129,414.156 29.207,413.961C42.086,445.953 73.395,468.551 109.996,468.551L133.207,468.551C169.777,468.551 201.066,445.992 213.965,414.043C214.914,414.18 215.883,414.273 216.871,414.273C230.984,414.273 242.43,402.832 242.43,388.719L242.43,381.398C242.43,370.223 233.371,361.164 222.195,361.164Z" style="fill:rgb(188,102,59);fill-rule:nonzero;"/>
                        </g>
                        <g transform="matrix(0.397816,0,0,0.397816,2260,282.154)">
                            <path d="M222.195,361.164L220.285,361.164L220.285,345.77C220.285,297.676 181.301,258.691 133.207,258.691L109.996,258.691C109.598,258.691 109.203,258.715 108.805,258.723C156.344,259.363 194.691,298.078 194.691,345.77L194.691,381.473C194.691,429.164 156.344,467.879 108.805,468.52C109.203,468.527 109.598,468.551 109.996,468.551L133.207,468.551C169.777,468.551 201.066,445.992 213.965,414.043C214.914,414.18 215.883,414.273 216.871,414.273C230.984,414.273 242.43,402.832 242.43,388.719L242.43,381.398C242.43,370.223 233.371,361.164 222.195,361.164Z" style="fill:rgb(173,87,49);fill-rule:nonzero;"/>
                        </g>
                        <g transform="matrix(0.397816,0,0,0.397816,2260,282.154)">
                            <path d="M93.004,322.273L150.199,322.273C178.945,322.273 204.426,336.207 220.285,357.684L220.285,345.77C220.285,297.676 181.301,258.691 133.207,258.691L109.996,258.691C61.906,258.691 22.918,297.676 22.918,345.77L22.918,357.684C38.777,336.207 64.262,322.273 93.004,322.273Z" style="fill:rgb(130,74,37);fill-rule:nonzero;"/>
                        </g>
                        <g transform="matrix(0.397816,0,0,0.397816,2260,282.154)">
                            <path d="M402.777,258.691L379.566,258.691C376.645,258.691 373.758,258.84 370.906,259.121C408.543,262.84 439.113,290.52 447.203,326.695C464.438,332.414 479.285,343.371 489.855,357.684L489.855,345.77C489.855,297.676 450.871,258.691 402.777,258.691Z" style="fill:rgb(255,163,0);fill-rule:nonzero;"/>
                        </g>
                        <g transform="matrix(0.397816,0,0,0.397816,2260,282.154)">
                            <path d="M133.207,258.691L109.996,258.691C107.074,258.691 104.184,258.84 101.336,259.121C138.973,262.84 169.543,290.52 177.633,326.695C194.867,332.414 209.715,343.371 220.285,357.684L220.285,345.77C220.285,297.676 181.301,258.691 133.207,258.691Z" style="fill:rgb(112,62,35);fill-rule:nonzero;"/>
                        </g>
                        <g transform="matrix(0.397816,0,0,0.397816,2260,282.154)">
                            <path d="M96.008,372.953C96.008,379.273 90.887,384.395 84.57,384.395C78.254,384.395 73.133,379.273 73.133,372.953C73.133,366.637 78.254,361.516 84.57,361.516C90.887,361.516 96.008,366.637 96.008,372.953Z" style="fill:rgb(112,62,35);fill-rule:nonzero;"/>
                        </g>
                        <g transform="matrix(0.397816,0,0,0.397816,2260,282.154)">
                            <path d="M170.074,372.953C170.074,379.273 164.953,384.395 158.637,384.395C152.316,384.395 147.195,379.273 147.195,372.953C147.195,366.637 152.316,361.516 158.637,361.516C164.953,361.516 170.074,366.637 170.074,372.953Z" style="fill:rgb(112,62,35);fill-rule:nonzero;"/>
                        </g>
                        <g transform="matrix(0.397816,0,0,0.397816,2260,282.154)">
                            <path d="M121.602,439.168C141.453,439.168 157.797,424.156 159.906,404.867C160.152,402.609 158.387,400.633 156.117,400.633L87.086,400.633C84.816,400.633 83.051,402.609 83.297,404.867C85.406,424.156 101.75,439.168 121.602,439.168Z" style="fill:white;fill-rule:nonzero;"/>
                        </g>
                    </g>
                </g>
            </g>
        </g>
    </g>
</svg>
