<?xml version="1.0" encoding="UTF-8" standalone="no"?>
<!DOCTYPE svg PUBLIC "-//W3C//DTD SVG 1.1//EN" "http://www.w3.org/Graphics/SVG/1.1/DTD/svg11.dtd">
<svg width="100%" height="100%" viewBox="0 0 233 233" version="1.1" xmlns="http://www.w3.org/2000/svg" xmlns:xlink="http://www.w3.org/1999/xlink" xml:space="preserve" xmlns:serif="http://www.serif.com/" style="fill-rule:evenodd;clip-rule:evenodd;stroke-linejoin:round;stroke-miterlimit:2;">
    <g transform="matrix(1,0,0,1,-3990.67,-243.752)">
        <g transform="matrix(1,0,0,1,1674.35,0)">
            <g transform="matrix(0.855019,0,0,0.855019,335.624,21.7306)">
                <circle cx="2452.78" cy="395.901" r="124.537" style="fill:rgb(115,115,115);"/>
            </g>
            <g transform="matrix(0.855019,0,0,0.855019,335.624,21.7306)">
                <path d="M2452.78,259.669C2377.6,259.669 2316.55,320.713 2316.55,395.901C2316.55,471.09 2377.6,532.134 2452.78,532.134C2527.97,532.134 2589.02,471.09 2589.02,395.901C2589.02,320.713 2527.97,259.669 2452.78,259.669ZM2452.78,271.364C2521.52,271.364 2577.32,327.168 2577.32,395.901C2577.32,464.635 2521.52,520.438 2452.78,520.438C2384.05,520.438 2328.25,464.635 2328.25,395.901C2328.25,327.168 2384.05,271.364 2452.78,271.364Z" style="fill:white;"/>
            </g>
            <g transform="matrix(1,0,0,1,-9.09495e-13,-5.36753)">
                <clipPath id="_clip1">
                    <circle cx="2432.45" cy="365.631" r="106.482"/>
                </clipPath>
                <g clip-path="url(#_clip1)">
                    <g transform="matrix(0.388999,0,0,0.388999,1453.92,281.253)">
                        <g transform="matrix(1,0,0,1,2260,0)">
                            <path d="M170.704,81.902C170.704,82.677 170.685,83.441 170.645,84.206C169.449,109.106 148.883,128.916 123.7,128.916C98.507,128.916 77.941,109.104 76.745,84.206C76.705,83.441 76.686,82.677 76.686,81.902C76.686,55.944 97.733,34.898 123.7,34.898C149.658,34.896 170.704,55.944 170.704,81.902Z" style="fill:rgb(230,230,230);fill-rule:nonzero;"/>
                        </g>
                        <g transform="matrix(1,0,0,1,2260,0)">
                            <path d="M95.315,81.904C95.315,59.131 111.51,40.144 133.01,35.823C129.999,35.218 126.886,34.897 123.698,34.897C97.737,34.897 76.691,55.943 76.691,81.904C76.691,107.865 97.737,128.911 123.698,128.911C126.886,128.911 130,128.59 133.01,127.985C111.509,123.664 95.315,104.677 95.315,81.904Z" style="fill:rgb(211,211,211);fill-rule:nonzero;"/>
                        </g>
                        <g transform="matrix(1,0,0,1,2260,0)">
                            <path d="M235.451,388.807L235.451,477.101L11.948,477.101L11.948,388.807C11.948,359.79 30.446,335.078 56.287,325.844C59.404,324.736 62.62,323.844 65.932,323.198L181.467,323.198C184.781,323.845 187.995,324.737 191.112,325.844C216.953,335.078 235.451,359.791 235.451,388.807Z" style="fill:rgb(253,93,101);fill-rule:nonzero;"/>
                        </g>
                        <g transform="matrix(1,0,0,1,2260,0)">
                            <path d="M94.357,323.2L65.929,323.2C35.168,329.189 11.945,356.294 11.945,388.81L11.945,477.104L40.373,477.104L40.373,388.81C40.373,356.294 63.596,329.19 94.357,323.2Z" style="fill:rgb(229,78,92);fill-rule:nonzero;"/>
                        </g>
                        <g transform="matrix(1,0,0,1,2260,0)">
                            <path d="M191.114,325.844L156.785,350.782C137.053,365.114 110.339,365.114 90.617,350.782L56.286,325.844C59.403,324.736 62.619,323.844 65.931,323.198L181.467,323.198C184.781,323.844 187.997,324.736 191.114,325.844Z" style="fill:rgb(229,78,92);fill-rule:nonzero;"/>
                        </g>
                        <g transform="matrix(1,0,0,1,2260,0)">
                            <path d="M21.831,239.371C9.675,238.831 0,228.802 0,216.52C0,203.894 10.234,193.65 22.87,193.65C24.007,193.65 25.124,193.728 26.222,193.895" style="fill:rgb(224,179,148);fill-rule:nonzero;"/>
                        </g>
                        <g transform="matrix(1,0,0,1,2260,0)">
                            <path d="M225.553,239.371C237.708,238.832 247.394,228.804 247.394,216.52C247.394,203.894 237.15,193.65 224.514,193.65C223.377,193.65 222.249,193.738 221.162,193.895" style="fill:rgb(224,179,148);fill-rule:nonzero;"/>
                        </g>
                        <g transform="matrix(1,0,0,1,2260,0)">
                            <path d="M166.361,302.523L166.361,356.978C166.361,380.544 147.255,399.639 123.7,399.639C100.134,399.639 81.039,380.544 81.039,356.978L81.039,302.523L166.361,302.523Z" style="fill:rgb(247,203,164);fill-rule:nonzero;"/>
                        </g>
                        <g transform="matrix(1,0,0,1,2260,0)">
                            <path d="M166.361,302.523L166.361,343.822L156.783,350.782C137.051,365.124 110.337,365.124 90.615,350.782L81.037,343.822L81.037,302.523L166.361,302.523Z" style="fill:rgb(224,179,148);fill-rule:nonzero;"/>
                        </g>
                        <g transform="matrix(1,0,0,1,2260,0)">
                            <path d="M90.612,338.226L50.372,308.99C29.108,293.54 17.605,267.993 20.132,241.83L27.111,169.604C31.918,119.86 73.72,81.903 123.696,81.903C173.672,81.903 215.475,119.86 220.281,169.604L227.26,241.83C229.788,267.992 218.285,293.54 197.02,308.99L156.78,338.226C137.053,352.56 110.34,352.56 90.612,338.226Z" style="fill:rgb(247,203,164);fill-rule:nonzero;"/>
                        </g>
                        <g transform="matrix(1,0,0,1,2260,0)">
                            <path d="M45.173,256.064C44.496,267.504 48.221,278.758 55.593,287.531L97.65,339.211C99.846,341.828 102.336,344.025 105.031,345.779C99.972,344.015 95.111,341.486 90.611,338.221L50.37,308.989C29.108,293.539 17.609,267.994 20.138,241.83L27.108,169.603C31.872,120.344 72.907,82.643 122.244,81.927C91.856,82.663 57.446,111.307 55.652,141.813L45.173,256.064Z" style="fill:rgb(224,179,148);fill-rule:nonzero;"/>
                        </g>
                        <g transform="matrix(1,0,0,1,2260,0)">
                            <path d="M170.645,84.204C169.449,109.104 148.883,128.914 123.7,128.914C98.507,128.914 77.941,109.102 76.745,84.204C90.067,76.832 105.261,72.51 121.367,72.127C121.661,72.117 121.955,72.117 122.249,72.117C122.729,72.098 123.21,72.098 123.7,72.098C140.669,72.099 156.695,76.47 170.645,84.204Z" style="fill:rgb(211,211,211);fill-rule:nonzero;"/>
                        </g>
                        <g transform="matrix(1,0,0,1,2260,0)">
                            <path d="M221.453,181.657C175.095,181.657 149.197,132.33 149.197,132.33C149.197,132.33 127.552,172.374 52.933,171.423C44.943,171.325 36.366,170.746 27.122,169.609L27.112,169.609C31.847,120.634 72.431,83.089 121.366,81.933C121.66,81.923 121.954,81.923 122.248,81.923C122.728,81.904 123.209,81.904 123.699,81.904C148.687,81.904 171.635,91.394 188.927,107.097C206.229,122.811 217.885,144.73 220.286,169.609L221.453,181.657Z" style="fill:rgb(230,230,230);fill-rule:nonzero;"/>
                        </g>
                        <g transform="matrix(1,0,0,1,2260,0)">
                            <path d="M122.249,81.923C91.86,82.658 57.443,111.302 55.649,141.808L52.934,171.422C44.944,171.324 36.367,170.745 27.123,169.608L27.113,169.608C31.848,120.633 72.432,83.088 121.367,81.932C121.66,81.923 121.955,81.923 122.249,81.923Z" style="fill:rgb(211,211,211);fill-rule:nonzero;"/>
                        </g>
                        <g transform="matrix(1,0,0,1,2260,0)">
                            <circle cx="166.13" cy="235.805" r="27.448" style="fill:rgb(215,233,244);"/>
                        </g>
                        <g transform="matrix(1,0,0,1,2260,0)">
                            <circle cx="81.269" cy="235.805" r="27.448" style="fill:rgb(215,233,244);"/>
                        </g>
                        <g transform="matrix(1,0,0,1,2260,0)">
                            <path d="M172.004,236.786L160.245,236.786C156.997,236.786 154.363,234.152 154.363,230.904C154.363,227.656 156.997,225.022 160.245,225.022L172.004,225.022C175.252,225.022 177.886,227.656 177.886,230.904C177.886,234.153 175.251,236.786 172.004,236.786Z" style="fill:rgb(182,205,216);fill-rule:nonzero;"/>
                        </g>
                        <g transform="matrix(1,0,0,1,2260,0)">
                            <path d="M87.149,236.786L75.39,236.786C72.142,236.786 69.508,234.152 69.508,230.904C69.508,227.656 72.142,225.022 75.39,225.022L87.149,225.022C90.397,225.022 93.031,227.656 93.031,230.904C93.031,234.153 90.397,236.786 87.149,236.786Z" style="fill:rgb(182,205,216);fill-rule:nonzero;"/>
                        </g>
                        <g transform="matrix(1,0,0,1,2260,0)">
                            <path d="M115.925,276.018L128.687,272.618C132.617,271.571 134.955,267.536 133.908,263.604L125.211,230.964" style="fill:rgb(224,179,148);fill-rule:nonzero;"/>
                        </g>
                        <g transform="matrix(1,0,0,1,2260,0)">
                            <path d="M227.842,206.237C226.073,204.188 222.979,203.96 220.93,205.728L197.055,226.328C192.994,213.101 180.666,203.457 166.125,203.457C149.954,203.457 136.516,215.385 134.147,230.905L113.248,230.905C110.88,215.385 97.441,203.457 81.27,203.457C66.73,203.457 54.402,213.101 50.34,226.328L26.465,205.728C24.416,203.959 21.32,204.187 19.553,206.237C17.784,208.287 18.012,211.382 20.062,213.15L49.014,238.13C50.21,254.885 64.215,268.155 81.271,268.155C97.442,268.155 110.88,256.227 113.249,240.707L134.148,240.707C136.516,256.227 149.955,268.155 166.126,268.155C183.181,268.155 197.186,254.885 198.383,238.13L227.335,213.15C229.382,211.382 229.611,208.287 227.842,206.237ZM81.269,258.352C68.837,258.352 58.723,248.238 58.723,235.806C58.723,223.374 68.837,213.26 81.269,213.26C93.701,213.26 103.815,223.374 103.815,235.806C103.815,248.238 93.701,258.352 81.269,258.352ZM166.124,258.352C153.692,258.352 143.578,248.238 143.578,235.806C143.578,223.374 153.692,213.26 166.124,213.26C178.556,213.26 188.67,223.374 188.67,235.806C188.67,248.238 178.556,258.352 166.124,258.352Z" style="fill:rgb(237,124,88);fill-rule:nonzero;"/>
                        </g>
                        <g transform="matrix(1,0,0,1,2260,0)">
                            <path d="M63.893,477.101L49.188,477.101L56.541,383.7L63.893,477.101Z" style="fill:rgb(229,78,92);fill-rule:nonzero;"/>
                        </g>
                        <g transform="matrix(1,0,0,1,2260,0)">
                            <path d="M198.191,477.101L183.487,477.101L190.84,383.7L198.191,477.101Z" style="fill:rgb(229,78,92);fill-rule:nonzero;"/>
                        </g>
                        <g transform="matrix(1,0,0,1,2260,0)">
                            <path d="M96.984,288.678C102.653,289.968 107.115,290.987 111.445,291.536C115.729,292.113 119.702,292.393 123.696,292.392C127.689,292.377 131.659,292.097 135.939,291.517C140.266,290.966 144.727,289.955 150.409,288.679C149.083,294.385 145.18,298.989 140.365,302.215C135.51,305.423 129.595,307.104 123.697,307.095C117.799,307.087 111.888,305.408 107.037,302.195C102.226,298.967 98.324,294.37 96.984,288.678Z" style="fill:rgb(77,77,77);fill-rule:nonzero;"/>
                        </g>
                        <g transform="matrix(1,0,0,1,2260,0)">
                            <path d="M500.058,348.893L500.058,477.104L276.555,477.104L276.555,348.893C276.555,316.377 299.777,289.272 330.539,283.283L446.093,283.283C452.759,284.586 459.071,286.871 464.865,289.998C485.815,301.29 500.058,323.435 500.058,348.893Z" style="fill:rgb(173,101,61);fill-rule:nonzero;"/>
                        </g>
                        <g transform="matrix(1,0,0,1,2260,0)">
                            <path d="M358.964,283.279L330.536,283.279C299.775,289.268 276.552,316.373 276.552,348.889L276.552,477.1L304.98,477.1L304.98,348.889C304.98,316.374 328.202,289.268 358.964,283.279Z" style="fill:rgb(150,85,53);fill-rule:nonzero;"/>
                        </g>
                        <g transform="matrix(1,0,0,1,2260,0)">
                            <path d="M286.438,202.353C274.283,201.814 264.607,191.786 264.607,179.502C264.607,166.876 274.841,156.632 287.477,156.632C288.614,156.632 289.731,156.71 290.829,156.877" style="fill:rgb(224,179,148);fill-rule:nonzero;"/>
                        </g>
                        <g transform="matrix(1,0,0,1,2260,0)">
                            <path d="M490.16,202.353C502.315,201.814 512.001,191.786 512.001,179.502C512.001,166.876 501.757,156.632 489.121,156.632C487.984,156.632 486.856,156.72 485.769,156.877" style="fill:rgb(224,179,148);fill-rule:nonzero;"/>
                        </g>
                        <g transform="matrix(1,0,0,1,2260,0)">
                            <path d="M355.219,301.21L314.979,271.974C293.715,256.524 282.212,230.977 284.739,204.814L291.718,132.588C296.525,82.844 338.327,44.887 388.303,44.887C438.279,44.887 480.082,82.844 484.888,132.588L491.867,204.814C494.395,230.976 482.892,256.524 461.627,271.974L421.387,301.21C401.66,315.543 374.947,315.543 355.219,301.21Z" style="fill:rgb(247,203,164);fill-rule:nonzero;"/>
                        </g>
                        <g transform="matrix(1,0,0,1,2260,0)">
                            <path d="M357.895,196.829C357.895,196.829 360.851,217.143 335.854,224.496C335.854,224.496 353.511,208.54 346.147,199.009" style="fill:rgb(224,179,148);fill-rule:nonzero;"/>
                        </g>
                        <g transform="matrix(1,0,0,1,2260,0)">
                            <path d="M309.78,219.047C309.103,230.487 312.828,241.741 320.2,250.514L362.257,302.194C364.453,304.811 366.943,307.008 369.639,308.762C364.58,306.998 359.719,304.469 355.219,301.204L314.978,271.972C293.716,256.522 282.217,230.977 284.746,204.813L291.716,132.586C296.48,83.327 337.515,45.626 386.852,44.91C356.463,45.645 322.053,74.289 320.259,104.795L309.78,219.047Z" style="fill:rgb(224,179,148);fill-rule:nonzero;"/>
                        </g>
                        <g transform="matrix(1,0,0,1,2260,0)">
                            <path d="M350.544,204.181L338.785,204.181C334.725,204.181 331.433,200.89 331.433,196.829C331.433,192.768 334.724,189.477 338.785,189.477L350.544,189.477C354.604,189.477 357.896,192.768 357.896,196.829C357.896,200.89 354.604,204.181 350.544,204.181Z" style="fill:rgb(128,128,128);fill-rule:nonzero;"/>
                        </g>
                        <g transform="matrix(1,0,0,1,2260,0)">
                            <path d="M418.71,196.829C418.71,196.829 415.754,217.143 440.751,224.496C440.751,224.496 423.094,208.54 430.458,199.009" style="fill:rgb(224,179,148);fill-rule:nonzero;"/>
                        </g>
                        <g transform="matrix(1,0,0,1,2260,0)">
                            <path d="M448.752,173.794C447.122,173.794 445.49,173.172 444.247,171.928C437.461,165.145 426.424,165.145 419.639,171.928C417.151,174.417 413.116,174.416 410.628,171.928C408.14,169.44 408.14,165.405 410.629,162.917C422.381,151.164 441.506,151.164 453.258,162.917C455.747,165.405 455.747,169.44 453.259,171.928C452.013,173.172 450.382,173.794 448.752,173.794Z" style="fill:rgb(230,230,230);fill-rule:nonzero;"/>
                        </g>
                        <g transform="matrix(1,0,0,1,2260,0)">
                            <path d="M361.474,173.794C359.843,173.794 358.212,173.172 356.969,171.928C350.184,165.143 339.146,165.143 332.362,171.928C329.874,174.416 325.839,174.416 323.351,171.928C320.863,169.44 320.863,165.405 323.351,162.917C335.104,151.164 354.228,151.164 365.981,162.917C368.469,165.405 368.469,169.44 365.981,171.928C364.735,173.172 363.104,173.794 361.474,173.794Z" style="fill:rgb(230,230,230);fill-rule:nonzero;"/>
                        </g>
                        <g transform="matrix(1,0,0,1,2260,0)">
                            <rect x="382.429" y="320.073" width="11.763" height="157.026" style="fill:rgb(150,85,53);"/>
                        </g>
                        <g transform="matrix(1,0,0,1,2260,0)">
                            <path d="M437.823,204.181L426.063,204.181C422.003,204.181 418.711,200.89 418.711,196.829C418.711,192.768 422.002,189.477 426.063,189.477L437.823,189.477C441.883,189.477 445.175,192.768 445.175,196.829C445.175,200.89 441.883,204.181 437.823,204.181Z" style="fill:rgb(128,128,128);fill-rule:nonzero;"/>
                        </g>
                        <g transform="matrix(1,0,0,1,2260,0)">
                            <path d="M464.906,290.36C464.906,290.36 464.896,294.223 463.779,300.005C461.211,313.454 452.692,337.295 424.577,346.892L419.675,331.207L388.306,368.457L356.938,331.208L352.036,346.893C323.922,337.296 315.403,313.456 312.825,300.006C311.708,294.222 311.698,290.361 311.698,290.361C334.597,300.645 365.192,304.252 381.582,283.284C384.228,279.911 386.493,275.902 388.307,271.188C390.611,277.188 394.414,280.981 399.139,283.284C411.99,289.567 431.615,284.803 446.094,283.284C452.76,284.587 459.072,286.872 464.866,289.999C464.886,290.115 464.895,290.233 464.906,290.36Z" style="fill:rgb(150,85,53);fill-rule:nonzero;"/>
                        </g>
                        <g transform="matrix(1,0,0,1,2260,0)">
                            <path d="M482.178,268.843C477.394,272.461 471.464,275.96 464.905,278.911C438.32,290.85 401.373,293.791 388.306,259.736C379.277,283.233 358.887,289.115 338.38,286.586C329.165,285.449 319.931,282.606 311.697,278.91C305.138,275.96 299.209,272.46 294.424,268.842C314.774,268.842 322.95,247.07 343.791,234.003C343.801,233.993 343.81,233.984 343.81,233.984C346.613,232.22 349.653,230.622 352.986,229.249C365.838,223.955 375.228,225.945 381.63,229.651C384.424,231.268 386.689,233.514 388.325,236.141C390.089,233.338 392.56,230.946 395.618,229.289C401.999,225.818 411.185,224.133 423.625,229.249C451.662,240.797 459.092,268.843 482.178,268.843Z" style="fill:rgb(230,230,230);fill-rule:nonzero;"/>
                        </g>
                        <g transform="matrix(1,0,0,1,2260,0)">
                            <path d="M464.906,278.911C464.906,278.911 464.896,282.774 463.779,288.556C461.211,302.005 452.692,325.846 424.577,335.443L419.675,319.758L388.306,357.008L356.937,319.758L353.987,329.198L352.036,335.443C323.922,325.846 315.403,302.006 312.825,288.556C311.708,282.772 311.698,278.911 311.698,278.911C319.021,282.204 327.127,284.802 335.312,286.136C356.829,289.666 378.827,284.41 388.307,259.738C401.373,293.792 438.321,290.851 464.906,278.911Z" style="fill:rgb(230,230,230);fill-rule:nonzero;"/>
                        </g>
                        <g transform="matrix(1,0,0,1,2260,0)">
                            <path d="M464.906,278.911C464.906,278.911 464.896,282.774 463.779,288.556C437.291,300.074 401.189,302.456 388.307,268.882C375.417,302.457 339.313,300.075 312.825,288.556C311.708,282.772 311.698,278.911 311.698,278.911C338.283,290.85 375.23,293.791 388.307,259.736C401.373,293.792 438.321,290.851 464.906,278.911Z" style="fill:rgb(204,204,204);fill-rule:nonzero;"/>
                        </g>
                        <g transform="matrix(1,0,0,1,2260,0)">
                            <path d="M484.119,116.721C483.7,116.721 483.275,116.685 482.847,116.61L454.727,111.708C450.728,111.011 448.05,107.203 448.747,103.202C449.445,99.202 453.244,96.524 457.253,97.222L485.373,102.124C489.372,102.821 492.05,106.629 491.353,110.63C490.729,114.202 487.625,116.721 484.119,116.721Z" style="fill:rgb(230,230,230);fill-rule:nonzero;"/>
                        </g>
                        <g transform="matrix(1,0,0,1,2260,0)">
                            <path d="M490.264,143.632C489.814,143.632 489.357,143.59 488.898,143.504L462.791,138.602C458.8,137.853 456.172,134.011 456.921,130.019C457.67,126.028 461.512,123.4 465.504,124.149L491.612,129.051C495.603,129.8 498.231,133.642 497.482,137.634C496.818,141.168 493.731,143.632 490.264,143.632Z" style="fill:rgb(230,230,230);fill-rule:nonzero;"/>
                        </g>
                        <g transform="matrix(1,0,0,1,2260,0)">
                            <path d="M292.486,116.721C288.979,116.721 285.874,114.203 285.252,110.63C284.555,106.63 287.232,102.822 291.232,102.124L319.352,97.222C323.358,96.523 327.16,99.202 327.858,103.202C328.555,107.202 325.878,111.01 321.878,111.708L293.757,116.61C293.33,116.685 292.905,116.721 292.486,116.721Z" style="fill:rgb(230,230,230);fill-rule:nonzero;"/>
                        </g>
                        <g transform="matrix(1,0,0,1,2260,0)">
                            <path d="M286.341,143.632C282.872,143.632 279.787,141.168 279.124,137.635C278.374,133.645 281.002,129.802 284.994,129.052L311.101,124.15C315.092,123.401 318.935,126.029 319.684,130.02C320.434,134.01 317.806,137.853 313.814,138.603L287.707,143.505C287.248,143.592 286.79,143.632 286.341,143.632Z" style="fill:rgb(230,230,230);fill-rule:nonzero;"/>
                        </g>
                        <g transform="matrix(1,0,0,1,2260,0)">
                            <path d="M328.499,477.104L313.795,477.104L321.148,349.667L328.499,477.104Z" style="fill:rgb(150,85,53);fill-rule:nonzero;"/>
                        </g>
                        <g transform="matrix(1,0,0,1,2260,0)">
                            <path d="M462.798,477.104L448.094,477.104L455.447,349.667L462.798,477.104Z" style="fill:rgb(150,85,53);fill-rule:nonzero;"/>
                        </g>
                        <g transform="matrix(1,0,0,1,2260,0)">
                            <path d="M388.325,236.143L401.087,232.743C405.017,231.696 407.355,227.66 406.308,223.729L397.611,191.089" style="fill:rgb(224,179,148);fill-rule:nonzero;"/>
                        </g>
                        <g transform="matrix(1,0,0,1,2260,0)">
                            <circle cx="412.337" cy="376.454" r="7.352" style="fill:rgb(77,77,77);"/>
                        </g>
                        <g transform="matrix(1,0,0,1,2260,0)">
                            <circle cx="412.337" cy="411.004" r="7.352" style="fill:rgb(77,77,77);"/>
                        </g>
                        <g transform="matrix(1,0,0,1,2260,0)">
                            <circle cx="412.337" cy="445.701" r="7.352" style="fill:rgb(77,77,77);"/>
                        </g>
                        <g transform="matrix(1,0,0,1,2260,0)">
                            <path d="M353.988,329.199L352.037,335.444C323.923,325.847 315.404,302.007 312.826,288.557C311.709,282.773 311.699,278.912 311.699,278.912C319.022,282.205 327.128,284.803 335.313,286.137C335.676,287.392 335.862,288.745 335.862,290.176C335.861,312.661 348.194,324.759 353.988,329.199Z" style="fill:rgb(204,204,204);fill-rule:nonzero;"/>
                        </g>
                        <g transform="matrix(1,0,0,1,2260,0)">
                            <path d="M322.628,271.058C325.089,279.272 332.872,284.105 338.381,286.586C329.166,285.449 319.932,282.606 311.698,278.91C305.139,275.96 299.21,272.46 294.425,268.842C314.775,268.842 322.951,247.07 343.792,234.003C343.086,234.671 318.737,258.07 322.628,271.058Z" style="fill:rgb(204,204,204);fill-rule:nonzero;"/>
                        </g>
                    </g>
                </g>
            </g>
        </g>
    </g>
</svg>
