<?xml version="1.0" encoding="UTF-8" standalone="no"?>
<!DOCTYPE svg PUBLIC "-//W3C//DTD SVG 1.1//EN" "http://www.w3.org/Graphics/SVG/1.1/DTD/svg11.dtd">
<svg width="100%" height="100%" viewBox="0 0 193 193" version="1.1" xmlns="http://www.w3.org/2000/svg" xmlns:xlink="http://www.w3.org/1999/xlink" xml:space="preserve" xmlns:serif="http://www.serif.com/" style="fill-rule:evenodd;clip-rule:evenodd;stroke-linejoin:round;stroke-miterlimit:2;">
    <g transform="matrix(1,0,0,1,-3982.64,-1489.43)">
        <g transform="matrix(1,0,0,1,1674.35,0)">
            <g transform="matrix(0.931754,0,0,0.931754,-1764.54,113.273)">
                <rect x="4378.48" y="1484.29" width="192.063" height="192.063" style="fill:none;"/>
            </g>
            <g transform="matrix(0.828222,0,0,0.781509,-283.37,1047)">
                <path d="M3340,633.286C3340,608.932 3321.37,589.19 3298.39,589.19L3192.57,589.19C3169.59,589.19 3150.96,608.932 3150.96,633.286L3150.96,745.438C3150.96,769.791 3169.59,789.534 3192.57,789.534L3298.39,789.534C3321.37,789.534 3340,769.791 3340,745.438L3340,633.286Z" style="fill:rgb(255,100,111);"/>
                <path d="M3352.07,633.286C3352.07,601.865 3328.04,576.394 3298.39,576.394C3266.95,576.394 3224,576.394 3192.57,576.394C3162.92,576.394 3138.88,601.865 3138.88,633.286C3138.88,666.6 3138.88,712.123 3138.88,745.438C3138.88,776.858 3162.92,802.329 3192.57,802.329C3224,802.329 3266.95,802.329 3298.39,802.329C3328.04,802.329 3352.07,776.858 3352.07,745.438L3352.07,633.286ZM3340,633.286C3340,608.932 3321.37,589.19 3298.39,589.19L3192.57,589.19C3169.59,589.19 3150.96,608.932 3150.96,633.286L3150.96,745.438C3150.96,769.791 3169.59,789.534 3192.57,789.534L3298.39,789.534C3321.37,789.534 3340,769.791 3340,745.438L3340,633.286Z" style="fill:white;"/>
            </g>
            <g transform="matrix(0.237009,0,0,0.237009,1808.29,1208.36)">
                <g transform="matrix(1,0,0,1,2260,1336.26)">
                    <path d="M512,274.572C512,306.459 487.443,332.591 456.217,335.089C454.588,335.227 452.932,335.296 451.275,335.296C447.024,335.296 442.883,334.868 438.88,334.027L73.121,334.027C69.118,334.869 64.976,335.296 60.725,335.296L60.683,335.296C27.153,335.269 0,308.103 0,274.572C0,242.96 24.157,216.994 55.024,214.136C56.901,213.943 58.806,213.861 60.725,213.861C63.278,213.861 65.777,214.012 68.248,214.316L443.751,214.316C446.222,214.012 448.721,213.861 451.274,213.861C454.877,213.861 458.411,214.178 461.834,214.785C490.34,219.77 512,244.645 512,274.572Z" style="fill:rgb(255,208,166);fill-rule:nonzero;"/>
                </g>
                <g transform="matrix(1,0,0,1,2260,1336.26)">
                    <path d="M461.835,214.785L461.835,291.703C461.835,306.639 459.889,321.175 456.217,335.089C454.588,335.227 452.932,335.296 451.275,335.296C447.024,335.296 442.883,334.868 438.88,334.027L73.121,334.027C69.118,334.869 64.976,335.296 60.725,335.296L60.683,335.296C56.984,321.312 55.024,306.721 55.024,291.703L55.024,214.136C56.901,213.943 58.806,213.861 60.725,213.861C63.278,213.861 65.777,214.012 68.248,214.316L443.751,214.316C446.222,214.012 448.721,213.861 451.274,213.861C454.877,213.861 458.412,214.178 461.835,214.785Z" style="fill:rgb(232,177,130);fill-rule:nonzero;"/>
                </g>
                <g transform="matrix(1,0,0,1,2260,1336.26)">
                    <path d="M478.891,284.237C475.865,284.237 472.983,282.474 471.7,279.522C465.487,265.232 447.844,269.599 445.852,270.142C441.692,271.283 437.375,268.848 436.216,264.693C435.057,260.539 437.458,256.232 441.607,255.055C452.862,251.861 476.633,251.56 486.074,273.274C487.799,277.243 485.981,281.86 482.011,283.585C480.995,284.028 479.935,284.237 478.891,284.237Z" style="fill:rgb(214,153,107);fill-rule:nonzero;"/>
                </g>
                <g transform="matrix(1,0,0,1,2260,1336.26)">
                    <path d="M37.974,284.237C36.931,284.237 35.871,284.027 34.854,283.585C30.884,281.86 29.066,277.242 30.791,273.273C40.233,251.558 64.009,251.862 75.258,255.055C79.421,256.237 81.839,260.57 80.657,264.734C79.479,268.888 75.165,271.305 71.006,270.141C68.984,269.588 51.373,265.247 45.166,279.523C43.881,282.474 40.999,284.237 37.974,284.237Z" style="fill:rgb(214,153,107);fill-rule:nonzero;"/>
                </g>
                <g transform="matrix(1,0,0,1,2260,1336.26)">
                    <path d="M443.75,186.951L443.75,313.155C443.75,403.466 379.144,478.678 293.629,495.125C282.239,497.319 270.463,498.458 258.426,498.458C156.077,498.458 73.122,415.503 73.122,313.155L73.122,186.951C73.122,84.613 156.077,1.637 258.426,1.637C270.463,1.637 282.239,2.776 293.629,4.971C330.691,12.097 363.825,30.268 389.467,55.91C422.998,89.462 443.75,135.782 443.75,186.951Z" style="fill:rgb(232,177,130);fill-rule:nonzero;"/>
                </g>
                <g transform="matrix(1,0,0,1,2260,1336.26)">
                    <path d="M443.748,186.956L443.748,313.155C443.748,403.462 379.144,478.681 293.626,495.123C208.109,478.681 143.505,403.463 143.505,313.155L143.505,186.956C143.505,96.649 208.109,21.416 293.626,4.975C330.691,12.098 363.821,30.265 389.469,55.913C423,89.457 443.748,135.784 443.748,186.956Z" style="fill:rgb(255,208,166);fill-rule:nonzero;"/>
                </g>
                <g transform="matrix(1,0,0,1,2260,1336.26)">
                    <path d="M443.75,186.956L443.75,214.316C224.359,214.04 151.431,124.312 151.431,124.312C151.431,161.584 114.159,200.912 73.119,214.316L73.119,186.956C73.119,84.612 156.083,1.634 258.428,1.634C270.465,1.634 282.24,2.78 293.629,4.975C330.693,12.098 363.823,30.265 389.471,55.913C423.002,89.457 443.75,135.784 443.75,186.956Z" style="fill:rgb(91,91,104);fill-rule:nonzero;"/>
                </g>
                <g transform="matrix(1,0,0,1,2260,1336.26)">
                    <path d="M293.622,4.975C228.093,17.578 174.851,64.692 153.523,126.659C152.1,125.154 151.424,124.312 151.424,124.312C151.424,161.584 114.153,200.912 73.113,214.316L73.113,186.956C73.113,84.612 156.076,1.634 258.422,1.634C270.459,1.634 282.234,2.78 293.622,4.975Z" style="fill:rgb(64,64,76);fill-rule:nonzero;"/>
                </g>
                <g transform="matrix(1,0,0,1,2260,1336.26)">
                    <g>
                        <path d="M177.701,289.824C173.372,289.824 169.864,286.315 169.864,281.987L169.864,246.886C169.864,242.558 173.372,239.049 177.701,239.049C182.03,239.049 185.537,242.558 185.537,246.886L185.537,281.987C185.537,286.316 182.03,289.824 177.701,289.824Z" style="fill:rgb(64,64,76);fill-rule:nonzero;"/>
                        <path d="M339.166,289.824C334.836,289.824 331.329,286.315 331.329,281.987L331.329,246.886C331.329,242.558 334.836,239.049 339.166,239.049C343.495,239.049 347.002,242.558 347.002,246.886L347.002,281.987C347.002,286.316 343.493,289.824 339.166,289.824Z" style="fill:rgb(64,64,76);fill-rule:nonzero;"/>
                    </g>
                </g>
                <g transform="matrix(2.13735e-16,-3.49055,4.08432,2.50093e-16,-4179.18,10123.4)">
                    <path d="M2409.07,1622.17C2399.65,1622.17 2392.01,1629.82 2392.01,1639.24C2392.01,1648.66 2399.65,1656.31 2409.07,1656.31C2404.36,1653.46 2400.54,1646.79 2400.54,1639.24C2400.54,1631.69 2404.36,1625.02 2409.07,1622.17Z" style="fill:rgb(64,64,76);"/>
                </g>
            </g>
        </g>
    </g>
</svg>
