<?xml version="1.0" encoding="UTF-8" standalone="no"?>
<!DOCTYPE svg PUBLIC "-//W3C//DTD SVG 1.1//EN" "http://www.w3.org/Graphics/SVG/1.1/DTD/svg11.dtd">
<svg width="100%" height="100%" viewBox="0 0 193 193" version="1.1" xmlns="http://www.w3.org/2000/svg" xmlns:xlink="http://www.w3.org/1999/xlink" xml:space="preserve" xmlns:serif="http://www.serif.com/" style="fill-rule:evenodd;clip-rule:evenodd;stroke-miterlimit:1.5;">
    <g transform="matrix(1,0,0,1,-4575.73,-1489.43)">
        <g transform="matrix(1,0,0,1,1674.35,0)">
            <g transform="matrix(0.828222,0,0,0.781509,309.721,1047)">
                <path d="M3340,633.286C3340,608.932 3321.37,589.19 3298.39,589.19L3192.57,589.19C3169.59,589.19 3150.96,608.932 3150.96,633.286L3150.96,745.438C3150.96,769.791 3169.59,789.534 3192.57,789.534L3298.39,789.534C3321.37,789.534 3340,769.791 3340,745.438L3340,633.286Z" style="fill:rgb(139,202,255);"/>
                <path d="M3352.07,633.286C3352.07,601.865 3328.04,576.394 3298.39,576.394C3266.95,576.394 3224,576.394 3192.57,576.394C3162.92,576.394 3138.88,601.865 3138.88,633.286C3138.88,666.6 3138.88,712.123 3138.88,745.438C3138.88,776.858 3162.92,802.329 3192.57,802.329C3224,802.329 3266.95,802.329 3298.39,802.329C3328.04,802.329 3352.07,776.858 3352.07,745.438L3352.07,633.286ZM3340,633.286C3340,608.932 3321.37,589.19 3298.39,589.19L3192.57,589.19C3169.59,589.19 3150.96,608.932 3150.96,633.286L3150.96,745.438C3150.96,769.791 3169.59,789.534 3192.57,789.534L3298.39,789.534C3321.37,789.534 3340,769.791 3340,745.438L3340,633.286Z" style="fill:white;"/>
            </g>
            <g transform="matrix(0.931754,0,0,0.931754,-1171.42,113.273)">
                <rect x="4378.48" y="1484.29" width="192.063" height="192.063" style="fill:none;"/>
            </g>
            <g>
                <g transform="matrix(0.07127,0,0,0.07127,2925.05,1405.74)">
                    <g transform="matrix(1,0,0,1,161.763,2044.22)">
                        <path d="M378,277.515L379.678,277.515C380.153,277.513 380.619,277.615 381.073,277.817C414.605,280.81 443.23,306.09 449,340.852L498.185,636.971C505.032,678.221 477.117,717.237 435.886,724.101C431.928,724.745 427.989,725.09 424.098,725.121L436.483,849.924C437.225,857.409 434.77,864.849 429.724,870.422C424.675,875.996 417.51,879.174 409.99,879.174L389.086,879.174L399.497,1319.47C399.907,1336.84 386.145,1351.26 368.784,1351.67L305.875,1353.15C288.513,1353.56 274.086,1339.81 273.674,1322.44L263.195,879.174L236.491,879.174L221.449,1322.77C220.862,1340.13 206.292,1353.75 188.938,1353.15L126.045,1351.03C108.69,1350.43 95.076,1335.85 95.666,1318.51L110.563,879.174L90.905,879.174C83.388,879.174 76.22,875.996 71.172,870.422C66.125,864.849 63.67,857.409 64.414,849.924L76.798,725.115C72.362,725.184 67.86,724.838 63.331,724.101C22.1,717.238 -5.815,678.222 1.033,636.972L50.217,340.852C56.162,305.038 86.368,279.288 121.208,277.607L121.217,277.515L378,277.515L378,277.514L378,277.515Z" style="fill:white;"/>
                    </g>
                    <g transform="matrix(1.37559,0,0,1.37559,7.15443,1927.42)">
                        <circle cx="293.851" cy="185.391" r="84.149" style="fill:white;"/>
                    </g>
                </g>
                <g transform="matrix(1,0,0,1,-1664.65,-6.26595)">
                    <path d="M4654.91,1559.69L4654.91,1620.2L4713.17,1620.2L4713.17,1559.69" style="fill:none;stroke:white;stroke-width:5.81px;"/>
                </g>
                <g transform="matrix(1.17279,0,0,1.17279,-2453.61,-276.234)">
                    <path d="M4701.88,1569.59L4666.95,1534.66L4631.41,1570.2" style="fill:none;stroke:white;stroke-width:4.96px;"/>
                </g>
            </g>
        </g>
    </g>
</svg>
