<?xml version="1.0" encoding="UTF-8" standalone="no"?>
<!DOCTYPE svg PUBLIC "-//W3C//DTD SVG 1.1//EN" "http://www.w3.org/Graphics/SVG/1.1/DTD/svg11.dtd">
<svg width="100%" height="100%" viewBox="0 0 233 242" version="1.1" xmlns="http://www.w3.org/2000/svg" xmlns:xlink="http://www.w3.org/1999/xlink" xml:space="preserve" xmlns:serif="http://www.serif.com/" style="fill-rule:evenodd;clip-rule:evenodd;stroke-linejoin:round;stroke-miterlimit:2;">
    <g transform="matrix(1,0,0,1,-3990.67,-243.752)">
        <g transform="matrix(1,0,0,1,1674.35,0)">
            <g transform="matrix(0.855019,0,0,0.855019,335.624,21.7306)">
                <circle cx="2452.78" cy="395.901" r="124.537" style="fill:rgb(139,202,255);"/>
            </g>
            <g transform="matrix(0.855019,0,0,0.855019,335.624,21.7306)">
                <path d="M2452.78,259.669C2377.6,259.669 2316.55,320.713 2316.55,395.901C2316.55,471.09 2377.6,532.134 2452.78,532.134C2527.97,532.134 2589.02,471.09 2589.02,395.901C2589.02,320.713 2527.97,259.669 2452.78,259.669ZM2452.78,271.364C2521.52,271.364 2577.32,327.168 2577.32,395.901C2577.32,464.635 2521.52,520.438 2452.78,520.438C2384.05,520.438 2328.25,464.635 2328.25,395.901C2328.25,327.168 2384.05,271.364 2452.78,271.364Z" style="fill:white;"/>
            </g>
            <g transform="matrix(1,0,0,1,-9.09495e-13,-5.36753)">
                <clipPath id="_clip1">
                    <circle cx="2432.45" cy="365.631" r="106.482"/>
                </clipPath>
                <g clip-path="url(#_clip1)">
                    <g id="wife" transform="matrix(0.404964,0,0,0.404964,2432.64,387.098)">
                        <g transform="matrix(1,0,0,1,-256,-256)">
                            <clipPath id="_clip2">
                                <rect x="0" y="0" width="512.001" height="512.001"/>
                            </clipPath>
                            <g clip-path="url(#_clip2)">
                                <path d="M65.164,502.691L18.618,502.691C13.477,502.691 9.309,498.523 9.309,493.382L9.309,381.673L65.164,381.673L65.164,502.691Z" style="fill:rgb(230,175,120);fill-rule:nonzero;"/>
                                <path d="M9.309,400.291L9.309,418.909L27.927,418.909C33.068,418.909 37.236,423.077 37.236,428.218L37.236,502.691L65.163,502.691L65.163,400.291L9.309,400.291Z" style="fill:rgb(210,155,110);fill-rule:nonzero;"/>
                                <rect x="214.11" y="381.671" width="65.16" height="121.02" style="fill:rgb(230,175,120);"/>
                                <path d="M269.964,400.291L269.964,418.909L251.346,418.909C246.205,418.909 242.037,423.077 242.037,428.218L242.037,502.691L214.11,502.691L214.11,400.291L269.964,400.291Z" style="fill:rgb(210,155,110);fill-rule:nonzero;"/>
                                <path d="M258.694,282.969L176.873,260.654L102.4,260.654L20.579,282.969C8.429,286.283 0,297.319 0,309.912L0,390.981C0,396.122 4.168,400.29 9.309,400.29L55.854,400.29L55.854,493.381C55.854,498.522 60.022,502.69 65.163,502.69L214.108,502.69C219.249,502.69 223.417,498.522 223.417,493.381L223.417,400.29L269.962,400.29C275.103,400.29 279.271,396.122 279.271,390.981L279.271,309.912C279.273,297.319 270.844,286.283 258.694,282.969Z" style="fill:rgb(255,145,60);fill-rule:nonzero;"/>
                                <path d="M176.873,260.655L102.4,260.655L65.905,270.608C70.781,307.02 101.89,335.128 139.636,335.128C177.382,335.128 208.491,307.02 213.367,270.608L176.873,260.655Z" style="fill:rgb(215,116,49);fill-rule:nonzero;"/>
                                <path d="M93.091,228.073L93.091,260.655C93.091,286.361 113.93,307.2 139.636,307.2C165.342,307.2 186.181,286.361 186.181,260.655L186.181,228.073L93.091,228.073Z" style="fill:rgb(230,175,120);fill-rule:nonzero;"/>
                                <path d="M93.091,249.381C107.072,256.553 122.874,260.655 139.636,260.655C156.398,260.655 172.201,256.553 186.181,249.381L186.181,228.073L93.091,228.073L93.091,249.381Z" style="fill:rgb(210,155,110);fill-rule:nonzero;"/>
                                <path d="M223.418,121.018L223.418,65.164L55.855,65.164L55.855,121.019C45.573,121.019 37.237,129.354 37.237,139.637C37.237,149.919 45.573,158.255 55.855,158.255C55.855,204.527 93.365,242.037 139.637,242.037C185.909,242.037 223.419,204.527 223.419,158.255C233.701,158.255 242.037,149.919 242.037,139.637C242.036,129.353 233.701,121.018 223.418,121.018Z" style="fill:rgb(240,192,135);fill-rule:nonzero;"/>
                                <path d="M102.4,158.255L102.4,65.164L55.855,65.164L55.855,121.019C45.573,121.019 37.237,129.354 37.237,139.637C37.237,149.919 45.573,158.255 55.855,158.255C55.855,204.527 93.365,242.037 139.637,242.037C147.722,242.037 155.513,240.83 162.91,238.693C127.973,228.598 102.4,196.441 102.4,158.255Z" style="fill:rgb(230,175,120);fill-rule:nonzero;"/>
                                <path d="M139.636,204.8C129.781,204.8 120.363,200.15 113.791,192.045C110.546,188.05 111.164,182.19 115.155,178.95C119.164,175.718 125.019,176.336 128.246,180.318C134.391,187.882 144.882,187.882 151.028,180.318C154.264,176.336 160.119,175.718 164.119,178.95C168.11,182.191 168.728,188.05 165.483,192.045C158.909,200.15 149.491,204.8 139.636,204.8Z" style="fill:rgb(210,155,110);fill-rule:nonzero;"/>
                                <g>
                                    <path d="M102.4,158.255C97.255,158.255 93.091,154.087 93.091,148.946L93.091,139.637C93.091,134.496 97.255,130.328 102.4,130.328C107.545,130.328 111.709,134.496 111.709,139.637L111.709,148.946C111.709,154.086 107.545,158.255 102.4,158.255Z" style="fill:rgb(100,70,60);fill-rule:nonzero;"/>
                                    <path d="M176.873,158.255C171.728,158.255 167.564,154.087 167.564,148.946L167.564,139.637C167.564,134.496 171.728,130.328 176.873,130.328C182.018,130.328 186.182,134.496 186.182,139.637L186.182,148.946C186.182,154.086 182.018,158.255 176.873,158.255Z" style="fill:rgb(100,70,60);fill-rule:nonzero;"/>
                                </g>
                                <path d="M202.301,112.158C205.019,119.357 212.715,122.619 220.295,121.289C221.309,121.111 222.352,121.018 223.419,121.018C226.828,121.018 229.98,122.001 232.728,123.6L232.728,65.164C232.728,51.236 224.992,39.238 213.668,32.852C211.552,19.525 200.105,9.309 186.183,9.309L111.71,9.309C75.721,9.309 46.546,38.484 46.546,74.473L46.546,123.601C49.294,122.002 52.447,121.019 55.855,121.019C57.052,121.019 58.219,121.135 59.347,121.358C68.413,123.143 77.492,118.132 79.762,109.175L82.051,100.018C83.063,95.971 86.61,93.085 90.781,92.973C108.101,92.506 153.82,90.209 184.994,78.926C190.513,76.928 196.461,80.289 197.426,86.079L200.912,106.993C201.21,108.786 201.68,110.513 202.301,112.158Z" style="fill:rgb(120,85,70);fill-rule:nonzero;"/>
                                <path d="M102.4,65.164C102.4,34.316 127.407,9.309 158.255,9.309L111.71,9.309C75.721,9.309 46.546,38.483 46.546,74.473L46.546,123.601C49.294,122.002 52.447,121.019 55.855,121.019C57.052,121.019 58.219,121.135 59.347,121.358C68.413,123.143 77.492,118.132 79.762,109.174L82.051,100.017C83.062,95.97 86.61,93.085 90.781,92.972C93.837,92.89 97.813,92.745 102.401,92.509L102.401,65.164L102.4,65.164Z" style="fill:rgb(100,70,60);fill-rule:nonzero;"/>
                                <g>
                                    <path d="M0,309.912L0,390.982C0,396.123 4.168,400.291 9.309,400.291L55.854,400.291L55.854,369.716C55.854,359.365 52.404,349.31 46.049,341.14L7.259,291.265C2.746,296.27 0,302.814 0,309.912Z" style="fill:rgb(215,116,49);fill-rule:nonzero;"/>
                                    <path d="M279.273,309.912L279.273,390.982C279.273,396.123 275.105,400.291 269.964,400.291L223.419,400.291L223.419,369.716C223.419,359.365 226.869,349.31 233.224,341.14L272.015,291.265C276.527,296.27 279.273,302.814 279.273,309.912Z" style="fill:rgb(215,116,49);fill-rule:nonzero;"/>
                                </g>
                                <path d="M381.673,46.545C438.227,46.545 484.073,92.391 484.073,148.945C484.073,214.109 493.382,279.272 493.382,279.272C493.382,279.272 446.837,307.199 381.673,316.508C316.509,307.199 269.964,279.272 269.964,279.272C269.964,279.272 279.273,214.108 279.273,148.945C279.273,92.391 325.119,46.545 381.673,46.545Z" style="fill:rgb(100,70,60);fill-rule:nonzero;"/>
                                <path d="M344.436,139.636L344.436,111.709C344.436,80.064 366.999,53.709 396.91,47.802C391.926,47.057 386.865,46.546 381.673,46.546L381.672,46.546C325.118,46.546 279.272,92.392 279.272,148.946C279.272,214.11 269.963,279.273 269.963,279.273C269.963,279.273 316.508,307.2 381.672,316.509L381.672,176.873L344.436,139.636Z" style="fill:rgb(85,55,50);fill-rule:nonzero;"/>
                                <path d="M494.445,346.723L430.613,321.19C423.545,318.363 418.91,311.517 418.91,303.904L418.91,269.964L344.437,269.964L344.437,303.904C344.437,311.517 339.802,318.363 332.734,321.19L268.902,346.723C258.299,350.964 251.347,361.233 251.347,372.653L251.347,409.6C251.347,414.741 255.515,418.909 260.656,418.909L260.656,493.382C260.656,498.523 264.824,502.691 269.965,502.691L493.383,502.691C498.524,502.691 502.692,498.523 502.692,493.382L502.692,418.909C507.833,418.909 512.001,414.741 512.001,409.6L512.001,372.653C512,361.233 505.048,350.964 494.445,346.723Z" style="fill:rgb(180,135,100);fill-rule:nonzero;"/>
                                <g>
                                    <path d="M260.655,409.6L260.655,437.527L269.964,437.527C275.105,437.527 279.273,441.695 279.273,446.836L279.273,502.691L307.2,502.691L307.2,409.6L260.655,409.6Z" style="fill:rgb(150,109,80);fill-rule:nonzero;"/>
                                    <path d="M502.691,409.6L502.691,437.527L493.382,437.527C488.241,437.527 484.073,441.695 484.073,446.836L484.073,502.691L456.146,502.691L456.146,409.6L502.691,409.6Z" style="fill:rgb(150,109,80);fill-rule:nonzero;"/>
                                    <path d="M344.436,300.089C355.994,304.623 368.526,307.201 381.672,307.201C394.818,307.201 407.35,304.623 418.908,300.089L418.908,269.965L344.435,269.965L344.435,300.089L344.436,300.089Z" style="fill:rgb(150,109,80);fill-rule:nonzero;"/>
                                </g>
                                <path d="M465.455,204.8C465.455,143.167 398.833,164.811 352.231,135.83C347.988,133.191 342.338,134.332 339.577,138.497C332.386,149.346 317.67,167.194 298.487,167.557C287.993,167.756 279.273,175.538 279.273,186.034L279.273,186.181C279.273,196.464 287.609,204.799 297.891,204.799C297.891,211.199 298.609,217.431 299.967,223.419C308.434,260.729 341.8,288.581 381.672,288.581C421.544,288.581 454.91,260.729 463.377,223.419C464.737,217.432 465.455,211.2 465.455,204.8Z" style="fill:rgb(195,151,114);fill-rule:nonzero;"/>
                                <path d="M344.436,204.8L344.436,134.991C342.525,135.605 340.762,136.709 339.576,138.497C332.385,149.346 317.669,167.194 298.486,167.558C287.992,167.757 279.272,175.539 279.272,186.034L279.272,186.182C279.272,196.464 287.608,204.8 297.89,204.8C297.89,211.199 298.608,217.431 299.967,223.42C308.433,260.73 341.8,288.582 381.672,288.582C389.763,288.582 397.563,287.383 404.965,285.243C370.019,275.156 344.436,242.994 344.436,204.8Z" style="fill:rgb(180,135,100);fill-rule:nonzero;"/>
                                <path d="M381.673,251.345C371.818,251.345 362.4,246.695 355.828,238.59C352.583,234.595 353.201,228.735 357.192,225.495C361.201,222.259 367.056,222.877 370.283,226.863C376.428,234.427 386.919,234.427 393.065,226.863C396.292,222.877 402.156,222.258 406.156,225.495C410.147,228.736 410.765,234.595 407.52,238.59C400.945,246.695 391.527,251.345 381.673,251.345Z" style="fill:rgb(150,109,80);fill-rule:nonzero;"/>
                                <g>
                                    <path d="M418.909,204.8C413.764,204.8 409.6,200.632 409.6,195.491L409.6,186.182C409.6,181.041 413.764,176.873 418.909,176.873C424.054,176.873 428.218,181.041 428.218,186.182L428.218,195.491C428.218,200.632 424.055,204.8 418.909,204.8Z" style="fill:rgb(85,55,50);fill-rule:nonzero;"/>
                                    <path d="M344.436,204.8C339.291,204.8 335.127,200.632 335.127,195.491L335.127,186.182C335.127,181.041 339.291,176.873 344.436,176.873C349.581,176.873 353.745,181.041 353.745,186.182L353.745,195.491C353.745,200.632 349.582,204.8 344.436,204.8Z" style="fill:rgb(85,55,50);fill-rule:nonzero;"/>
                                </g>
                                <path d="M494.445,346.723L454.736,330.839C448.051,365.107 417.897,390.981 381.673,390.981C345.449,390.981 315.295,365.107 308.61,330.839L268.901,346.723C258.298,350.964 251.346,361.233 251.346,372.653L251.346,409.6C251.346,414.741 255.514,418.909 260.655,418.909L297.891,418.909L297.891,502.691L465.455,502.691L465.455,418.909L502.691,418.909C507.832,418.909 512,414.741 512,409.6L512,372.653C512,361.233 505.048,350.964 494.445,346.723Z" style="fill:rgb(255,80,125);fill-rule:nonzero;"/>
                                <g>
                                    <path d="M454.736,330.84C448.051,365.108 417.897,390.982 381.673,390.982C345.449,390.982 315.295,365.108 308.61,330.84L291.132,337.831C300.784,378.95 337.609,409.6 381.673,409.6C425.737,409.6 462.562,378.95 472.214,337.831L454.736,330.84Z" style="fill:rgb(210,60,105);fill-rule:nonzero;"/>
                                    <path d="M297.891,408.003C297.891,403.065 295.929,398.33 292.438,394.838L255.581,357.981C252.903,362.305 251.346,367.339 251.346,372.653L251.346,409.6C251.346,414.741 255.514,418.909 260.655,418.909L297.891,418.909L297.891,408.003Z" style="fill:rgb(210,60,105);fill-rule:nonzero;"/>
                                    <path d="M465.455,408.003C465.455,403.065 467.417,398.33 470.908,394.838L507.765,357.981C510.443,362.305 512,367.339 512,372.653L512,409.6C512,414.741 507.832,418.909 502.691,418.909L465.455,418.909L465.455,408.003Z" style="fill:rgb(210,60,105);fill-rule:nonzero;"/>
                                </g>
                            </g>
                        </g>
                    </g>
                </g>
            </g>
        </g>
    </g>
</svg>
