<?xml version="1.0" encoding="UTF-8" standalone="no"?>
<!DOCTYPE svg PUBLIC "-//W3C//DTD SVG 1.1//EN" "http://www.w3.org/Graphics/SVG/1.1/DTD/svg11.dtd">
<svg width="100%" height="100%" viewBox="0 0 193 193" version="1.1" xmlns="http://www.w3.org/2000/svg" xmlns:xlink="http://www.w3.org/1999/xlink" xml:space="preserve" xmlns:serif="http://www.serif.com/" style="fill-rule:evenodd;clip-rule:evenodd;stroke-linejoin:round;stroke-miterlimit:2;">
    <g transform="matrix(1,0,0,1,-4180.34,-1489.43)">
        <g transform="matrix(1,0,0,1,1674.35,0)">
            <g transform="matrix(0.931754,0,0,0.931754,-1566.84,113.273)">
                <rect x="4378.48" y="1484.29" width="192.063" height="192.063" style="fill:none;"/>
            </g>
            <g transform="matrix(0.828222,0,0,0.781509,-85.6729,1047)">
                <path d="M3340,633.286C3340,608.932 3321.37,589.19 3298.39,589.19L3192.57,589.19C3169.59,589.19 3150.96,608.932 3150.96,633.286L3150.96,745.438C3150.96,769.791 3169.59,789.534 3192.57,789.534L3298.39,789.534C3321.37,789.534 3340,769.791 3340,745.438L3340,633.286Z" style="fill:rgb(139,202,255);"/>
                <path d="M3352.07,633.286C3352.07,601.865 3328.04,576.394 3298.39,576.394C3266.95,576.394 3224,576.394 3192.57,576.394C3162.92,576.394 3138.88,601.865 3138.88,633.286C3138.88,666.6 3138.88,712.123 3138.88,745.438C3138.88,776.858 3162.92,802.329 3192.57,802.329C3224,802.329 3266.95,802.329 3298.39,802.329C3328.04,802.329 3352.07,776.858 3352.07,745.438L3352.07,633.286ZM3340,633.286C3340,608.932 3321.37,589.19 3298.39,589.19L3192.57,589.19C3169.59,589.19 3150.96,608.932 3150.96,633.286L3150.96,745.438C3150.96,769.791 3169.59,789.534 3192.57,789.534L3298.39,789.534C3321.37,789.534 3340,769.791 3340,745.438L3340,633.286Z" style="fill:white;"/>
            </g>
            <g id="_058---Washing-Hands" serif:id="058---Washing-Hands" transform="matrix(0.257446,0,0,0.257446,2536.4,1520.2)">
                <path id="Shape" d="M397.241,339.862C397.241,354.488 385.385,366.345 370.759,366.345L344.276,366.345C355.499,366.291 365.509,373.391 369.17,384C370.239,386.819 370.777,389.812 370.759,392.828C370.759,407.454 358.902,419.31 344.276,419.31L308.966,419.31C320.188,419.256 330.199,426.356 333.859,436.966C334.928,439.785 335.467,442.778 335.448,445.793C335.442,458.779 326.021,469.845 313.203,471.923C311.804,472.172 310.386,472.29 308.966,472.276L105.931,472.276C69.191,472.233 35.091,453.178 15.799,421.911C-3.493,390.645 -5.229,351.62 11.211,318.764L11.388,318.411L19.774,304.728L19.95,304.375L125.087,145.832C132.803,133.018 148.069,126.861 162.516,130.737C164.809,131.266 167.032,132.066 169.137,133.12C183.728,140.368 191.048,157.015 186.527,172.668L161.457,260.414L344.276,260.414C358.902,260.414 370.759,272.271 370.759,286.897C370.759,301.523 358.902,313.379 344.276,313.379L370.759,313.379C381.082,313.346 390.472,319.353 394.77,328.739C395.123,329.534 395.476,330.24 395.741,331.034C396.738,333.871 397.246,336.856 397.241,339.862Z" style="fill:rgb(255,208,166);fill-rule:nonzero;"/>
                <g>
                    <path id="Shape1" serif:id="Shape" d="M504.232,400.772C499.274,405.747 492.54,408.542 485.517,408.541C478.488,408.576 471.741,405.775 466.803,400.772L394.77,328.739C390.472,319.353 381.082,313.346 370.759,313.379L344.276,313.379C358.902,313.379 370.759,301.523 370.759,286.897C370.759,272.271 358.902,260.414 344.276,260.414L334.566,260.414C335.174,257.511 335.47,254.552 335.448,251.586C335.459,229.468 319.067,210.771 297.137,207.89C310.36,193.342 317.72,174.407 317.793,154.748L430.257,127.294C446.754,123.128 463.776,131.881 469.983,147.725C476.191,163.568 469.646,181.555 454.709,189.705L374.996,234.019L504.232,363.343C514.558,373.683 514.558,390.433 504.232,400.772Z" style="fill:rgb(232,177,130);fill-rule:nonzero;"/>
                    <path id="Shape2" serif:id="Shape" d="M491.785,446.852C490.507,450.649 488.361,454.095 485.517,456.916C480.56,461.89 473.826,464.686 466.803,464.684C459.773,464.719 453.026,461.919 448.088,456.916L429.286,438.201L357.429,366.345L370.759,366.345C377.781,366.345 384.515,363.55 389.473,358.577C391.184,356.86 392.667,354.932 393.887,352.839C396.099,348.872 397.254,344.404 397.241,339.862C397.25,336.046 396.406,332.276 394.77,328.828L486.047,420.105C492.824,427.239 495.04,437.566 491.785,446.852Z" style="fill:rgb(232,177,130);fill-rule:nonzero;"/>
                    <path id="Shape3" serif:id="Shape" d="M434.494,468.392C433.198,471.119 431.435,473.598 429.286,475.719C424.315,480.663 417.582,483.427 410.571,483.399C403.567,483.393 396.846,480.635 391.857,475.719L335.448,419.31L344.276,419.31C351.299,419.311 358.032,416.516 362.99,411.542C367.94,406.568 370.73,399.844 370.759,392.828C370.759,378.202 358.902,366.345 344.276,366.345L357.429,366.345L429.286,438.201C429.633,438.532 429.957,438.886 430.257,439.261L431.139,440.232C437.613,448.178 438.919,459.147 434.494,468.392Z" style="fill:rgb(232,177,130);fill-rule:nonzero;"/>
                    <path id="Shape4" serif:id="Shape" d="M371.994,480.927C370.751,483.636 369.015,486.091 366.874,488.166C361.936,493.168 355.189,495.969 348.16,495.934C341.137,495.935 334.403,493.14 329.446,488.166L313.203,471.923C326.021,469.845 335.442,458.779 335.448,445.793C335.463,445.262 335.433,444.73 335.36,444.204C334.668,430.802 323.957,420.091 310.554,419.399C310.028,419.325 309.497,419.296 308.966,419.31L335.448,419.31L367.139,451.001C374.961,458.927 376.909,470.935 371.994,480.927Z" style="fill:rgb(232,177,130);fill-rule:nonzero;"/>
                </g>
                <path id="Shape5" serif:id="Shape" d="M335.448,251.586C335.47,254.552 335.174,257.511 334.566,260.414L161.457,260.414L186.527,172.668C191.048,157.015 183.728,140.368 169.137,133.12C167.032,132.066 164.809,131.266 162.516,130.737C174.229,93.269 211.551,69.973 250.355,75.908C289.159,81.842 317.813,115.227 317.793,154.483L317.793,154.748C317.72,174.407 310.36,193.342 297.137,207.89C319.067,210.771 335.459,229.468 335.448,251.586Z" style="fill:rgb(231,231,231);fill-rule:nonzero;"/>
                <circle id="Oval" cx="366.345" cy="70.621" r="22.069" style="fill:rgb(231,231,231);"/>
                <circle id="Oval1" serif:id="Oval" cx="476.69" cy="48.552" r="35.31" style="fill:rgb(231,231,231);"/>
                <circle id="Oval2" serif:id="Oval" cx="476.69" cy="251.586" r="17.655" style="fill:rgb(231,231,231);"/>
                <path id="Shape6" serif:id="Shape" d="M395.741,331.034L211.862,331.034C206.987,331.034 203.034,327.082 203.034,322.207C203.034,317.332 206.987,313.379 211.862,313.379L370.759,313.379C381.082,313.346 390.472,319.353 394.77,328.739C395.123,329.534 395.476,330.24 395.741,331.034Z" style="fill:rgb(222,148,84);fill-rule:nonzero;"/>
                <path id="Shape7" serif:id="Shape" d="M369.17,384L203.034,384C198.159,384 194.207,380.048 194.207,375.172C194.207,370.297 198.159,366.345 203.034,366.345L344.276,366.345C355.499,366.291 365.509,373.391 369.17,384Z" style="fill:rgb(222,148,84);fill-rule:nonzero;"/>
                <path id="Shape8" serif:id="Shape" d="M333.859,436.966L194.207,436.966C189.332,436.966 185.379,433.013 185.379,428.138C185.379,423.263 189.332,419.31 194.207,419.31L308.966,419.31C320.188,419.256 330.199,426.356 333.859,436.966Z" style="fill:rgb(222,148,84);fill-rule:nonzero;"/>
                <path id="Shape9" serif:id="Shape" d="M207.166,132.158C203.599,132.139 200.395,129.977 199.043,126.676C197.691,123.376 198.458,119.586 200.986,117.071C216.353,101.666 239.594,97.261 259.531,105.975C264.002,107.925 266.045,113.13 264.095,117.601C262.145,122.072 256.94,124.115 252.469,122.165C239.15,116.361 223.636,119.307 213.372,129.589C211.722,131.229 209.492,132.153 207.166,132.158Z" style="fill:white;fill-rule:nonzero;"/>
                <path id="Shape10" serif:id="Shape" d="M491.785,446.852L491.52,446.852C489.196,446.882 486.962,445.957 485.341,444.292L393.887,352.839C396.099,348.872 397.254,344.404 397.241,339.862C397.25,336.046 396.406,332.276 394.77,328.828L486.047,420.105C492.824,427.239 495.04,437.566 491.785,446.852Z" style="fill:rgb(192,115,50);fill-rule:nonzero;"/>
                <path id="Shape11" serif:id="Shape" d="M434.494,468.392L368.817,402.714C372.127,394.558 371.16,385.288 366.236,377.991C361.312,370.694 353.079,366.328 344.276,366.345L357.341,366.345L430.257,439.261L431.139,440.232C437.613,448.178 438.919,459.147 434.494,468.392Z" style="fill:rgb(192,115,50);fill-rule:nonzero;"/>
                <path id="Shape12" serif:id="Shape" d="M371.994,480.927L335.36,444.204L310.466,419.31L335.448,419.31L367.139,451.001C374.961,458.927 376.909,470.935 371.994,480.927Z" style="fill:rgb(192,115,50);fill-rule:nonzero;"/>
            </g>
        </g>
    </g>
</svg>
