<?xml version="1.0" encoding="UTF-8" standalone="no"?>
<!DOCTYPE svg PUBLIC "-//W3C//DTD SVG 1.1//EN" "http://www.w3.org/Graphics/SVG/1.1/DTD/svg11.dtd">
<svg width="100%" height="100%" viewBox="0 0 68 68" version="1.1" xmlns="http://www.w3.org/2000/svg" xmlns:xlink="http://www.w3.org/1999/xlink" xml:space="preserve" xmlns:serif="http://www.serif.com/" style="fill-rule:evenodd;clip-rule:evenodd;stroke-linejoin:round;stroke-miterlimit:2;">
    <g transform="matrix(1,0,0,1,-4002.14,-1341.59)">
        <g transform="matrix(1,0,0,1,1674.35,0)">
            <g transform="matrix(1.09976,0,0,1.09976,-2082.18,-138.261)">
                <circle cx="4022.97" cy="1358.63" r="13.012" style="fill:rgb(255,100,111);"/>
            </g>
        </g>
        <g transform="matrix(1,0,0,1,1674.35,0)">
            <g transform="matrix(1.09976,0,0,1.09976,-2043.61,-138.261)">
                <circle cx="4022.97" cy="1358.63" r="13.012" style="fill:rgb(115,115,115);"/>
            </g>
        </g>
        <g transform="matrix(1,0,0,1,1674.35,0)">
            <g transform="matrix(1.09976,0,0,1.09976,-2043.61,-99.6363)">
                <circle cx="4022.97" cy="1358.63" r="13.012" style="fill:rgb(255,100,111);"/>
            </g>
        </g>
        <g transform="matrix(1,0,0,1,1674.35,0)">
            <g transform="matrix(1.09976,0,0,1.09976,-2082.18,-99.6363)">
                <circle cx="4022.97" cy="1358.63" r="13.012" style="fill:rgb(139,202,255);"/>
            </g>
        </g>
    </g>
</svg>
