<?xml version="1.0" encoding="UTF-8" standalone="no"?>
<!DOCTYPE svg PUBLIC "-//W3C//DTD SVG 1.1//EN" "http://www.w3.org/Graphics/SVG/1.1/DTD/svg11.dtd">
<svg width="100%" height="100%" viewBox="0 0 233 233" version="1.1" xmlns="http://www.w3.org/2000/svg" xmlns:xlink="http://www.w3.org/1999/xlink" xml:space="preserve" xmlns:serif="http://www.serif.com/" style="fill-rule:evenodd;clip-rule:evenodd;stroke-linejoin:round;stroke-miterlimit:2;">
    <g transform="matrix(1,0,0,1,-3990.67,-243.752)">
        <g transform="matrix(1,0,0,1,1674.35,0)">
            <g transform="matrix(0.855019,0,0,0.855019,335.624,21.7306)">
                <circle cx="2452.78" cy="395.901" r="124.537" style="fill:rgb(139,202,255);"/>
            </g>
            <g transform="matrix(0.855019,0,0,0.855019,335.624,21.7306)">
                <path d="M2452.78,259.669C2377.6,259.669 2316.55,320.713 2316.55,395.901C2316.55,471.09 2377.6,532.134 2452.78,532.134C2527.97,532.134 2589.02,471.09 2589.02,395.901C2589.02,320.713 2527.97,259.669 2452.78,259.669ZM2452.78,271.364C2521.52,271.364 2577.32,327.168 2577.32,395.901C2577.32,464.635 2521.52,520.438 2452.78,520.438C2384.05,520.438 2328.25,464.635 2328.25,395.901C2328.25,327.168 2384.05,271.364 2452.78,271.364Z" style="fill:white;"/>
            </g>
            <g transform="matrix(1,0,0,1,-9.09495e-13,-5.36753)">
                <clipPath id="_clip1">
                    <circle cx="2432.45" cy="365.631" r="106.482"/>
                </clipPath>
                <g clip-path="url(#_clip1)">
                    <g transform="matrix(1.1225,0,0,1.1225,-1121.58,-23.7411)">
                        <g id="young" transform="matrix(0.204966,0,0,0.204966,3167.2,337.677)">
                            <g transform="matrix(1,0,0,1,-256,-256)">
                                <clipPath id="_clip2">
                                    <rect x="0" y="0" width="512" height="512"/>
                                </clipPath>
                                <g clip-path="url(#_clip2)">
                                    <path d="M162.082,173.32C161.953,164.84 162.262,159.64 162.262,159.64C162.262,159.64 203.106,128.758 223.387,76.578C223.387,76.578 261.098,133.922 349.488,159.023C349.488,159.023 349.855,164.558 349.75,173.535C357.297,169.746 367.016,167.887 375.539,175.734C418.531,37.137 294.242,2.09 262.133,0.113C228.551,-1.953 208.106,24.914 208.106,24.914C177.848,1.664 144.34,29.562 132.457,72.961C125.184,99.519 130.297,145.441 135.359,177.074C144.039,167.851 154.188,169.476 162.082,173.32Z" style="fill:rgb(148,91,68);fill-rule:nonzero;"/>
                                    <path d="M379.57,180.324C370.215,167.32 358.519,169.133 349.75,173.531C349.547,191.152 347.531,222.039 337.387,250.398C381.535,265.211 394.996,201.777 379.57,180.324Z" style="fill:rgb(255,189,134);fill-rule:nonzero;"/>
                                    <path d="M162.082,173.32C153.363,169.078 141.895,167.535 132.695,180.328C117.277,201.762 130.707,265.125 174.785,250.433C164.445,221.82 162.348,190.68 162.082,173.32Z" style="fill:rgb(255,189,134);fill-rule:nonzero;"/>
                                    <path d="M342.566,233.109C341.133,238.887 339.426,244.695 337.387,250.398C373.785,262.609 389.324,221.637 385.008,194.851C381.832,216.726 367.816,238.379 342.566,233.109Z" style="fill:rgb(255,166,100);fill-rule:nonzero;"/>
                                    <path d="M127.254,194.855C122.945,221.617 138.449,262.543 174.785,250.429C172.723,244.726 170.992,238.918 169.535,233.14C144.387,238.289 130.426,216.683 127.254,194.855Z" style="fill:rgb(255,166,100);fill-rule:nonzero;"/>
                                    <path d="M256.391,314.301C234.809,314.375 218.141,307.668 205.27,297.019L205.27,341.578C205.27,369.668 228.039,392.441 256.133,392.441C284.223,392.441 306.996,369.668 306.996,341.578L306.996,297.011C294.246,307.554 277.746,314.234 256.391,314.301Z" style="fill:rgb(255,189,134);fill-rule:nonzero;"/>
                                    <path d="M349.488,159.023C349.488,159.023 359.73,313.961 256.387,314.304C153.043,314.644 162.262,159.644 162.262,159.644C162.262,159.644 203.106,128.758 223.383,76.578C223.387,76.578 261.098,133.922 349.488,159.023Z" style="fill:rgb(254,210,164);fill-rule:nonzero;"/>
                                    <path d="M256.391,295.605C175.891,295.875 163.688,201.887 162.227,160.324C161.723,171.223 156.973,314.633 256.391,314.301C352.355,313.984 350.375,180.375 349.601,161.301C348.164,203.637 335.875,295.343 256.391,295.605Z" style="fill:rgb(255,189,134);fill-rule:nonzero;"/>
                                    <path d="M205.27,297.019L205.27,315.691C218.141,326.347 234.801,333.07 256.391,333C277.75,332.925 294.246,326.242 306.996,315.691L306.996,297.011C294.246,307.554 277.746,314.234 256.391,314.304C234.809,314.375 218.141,307.668 205.27,297.019Z" style="fill:rgb(255,166,100);fill-rule:nonzero;"/>
                                    <path d="M468.254,434.035C440.285,411.422 306.996,341.578 306.996,341.578C306.996,369.672 284.223,392.445 256.133,392.445C228.039,392.445 205.27,369.672 205.27,341.578C205.27,341.578 71.981,411.422 44.008,434.035C21.539,452.203 14.817,491.484 13.039,506.242C12.668,509.308 15.067,512 18.156,512L494.109,512C497.199,512 499.594,509.308 499.226,506.242C497.449,491.484 490.722,452.203 468.254,434.035Z" style="fill:rgb(255,100,111);fill-rule:nonzero;"/>
                                    <path d="M220.898,173.562C220.898,164.687 215.277,157.734 208.106,157.734C200.934,157.734 195.316,164.687 195.316,173.562C195.316,182.437 200.934,189.387 208.106,189.387C215.277,189.387 220.898,182.433 220.898,173.562Z" style="fill:rgb(67,63,67);fill-rule:nonzero;"/>
                                    <path d="M304.156,189.387C311.328,189.387 316.945,182.433 316.945,173.558C316.945,164.683 311.328,157.734 304.156,157.734C296.984,157.734 291.367,164.683 291.367,173.558C291.367,182.433 296.984,189.387 304.156,189.387Z" style="fill:rgb(67,63,67);fill-rule:nonzero;"/>
                                    <path d="M264.359,226.812C265.152,226.812 265.961,226.793 266.789,226.762C271.086,226.582 274.426,222.953 274.246,218.652C274.066,214.351 270.453,211.027 266.141,211.195C262.336,211.355 255.633,211.129 253.563,207.836C250.895,203.594 253.965,193.504 256.887,188.019C258.918,184.234 257.5,179.515 253.715,177.48C249.93,175.441 245.203,176.859 243.164,180.644C241.98,182.844 231.848,202.504 240.352,216.094C244.809,223.211 252.875,226.812 264.359,226.812Z" style="fill:rgb(255,166,100);fill-rule:nonzero;"/>
                                    <path d="M216.066,235.051C212.469,237.41 211.465,242.238 213.824,245.836C214.449,246.789 229.43,269.16 256.133,269.16C282.832,269.16 297.816,246.789 298.441,245.836C300.793,242.25 299.793,237.457 296.219,235.086C292.648,232.715 287.82,233.699 285.434,237.262C285.324,237.426 274.297,253.582 256.133,253.582C237.973,253.582 226.941,237.426 226.852,237.293C224.492,233.695 219.664,232.691 216.066,235.051Z" style="fill:rgb(255,100,111);fill-rule:nonzero;"/>
                                </g>
                            </g>
                        </g>
                        <g transform="matrix(1.06265,0,0,0.980862,-185.5,16.1889)">
                            <path d="M3207.4,428.607C3207.58,430.265 3207.1,431.929 3206.08,433.178C3205.06,434.427 3203.59,435.142 3202.05,435.142C3183.34,435.142 3126.73,435.142 3108.02,435.142C3106.48,435.142 3105.01,434.427 3103.99,433.178C3102.97,431.929 3102.49,430.265 3102.67,428.607C3104.34,413.418 3108.36,377.017 3108.36,377.017L3201.71,377.017C3201.71,377.017 3205.73,413.418 3207.4,428.607Z" style="fill:rgb(255,100,111);"/>
                        </g>
                        <g id="lung" transform="matrix(0.199518,0,0,0.199518,3167.2,390.148)">
                            <g transform="matrix(1,0,0,1,-221.037,-221.037)">
                                <clipPath id="_clip3">
                                    <rect x="0" y="0" width="442.074" height="442.074"/>
                                </clipPath>
                                <g clip-path="url(#_clip3)">
                                    <g>
                                        <g id="Layer_2_45_">
                                            <g>
                                                <path d="M189.51,157.745C185.168,148.362 177.718,140.156 165.52,137.054C163.584,136.561 161.492,136.315 159.303,136.315C124.478,136.315 62.744,199.35 32.871,253.581C6.776,300.952 -3.864,347.913 1.244,393.153C3.492,413.064 26.785,429.261 53.169,429.261C66.826,429.261 92.729,424.812 114.65,395.437C119.691,395.946 124.546,396.205 129.12,396.205L129.126,396.205C150.914,396.205 167.611,390.402 178.755,378.955C195.676,361.576 194.711,333.33 194.711,325.562C194.711,317.794 194.761,217.955 194.761,211.099C194.761,210.852 194.794,210.58 194.846,210.296C192.506,192.926 193.015,175.063 189.677,157.66C189.572,157.714 189.51,157.745 189.51,157.745Z" style="fill:rgb(243,204,204);fill-rule:nonzero;"/>
                                                <path d="M409.201,253.58C379.332,199.349 317.595,136.314 282.768,136.314C280.582,136.314 278.491,136.56 276.555,137.053C264.356,140.155 256.904,148.362 252.562,157.744C252.562,157.744 252.454,157.687 252.266,157.583C253.074,175.849 250.925,194.049 247.309,211.686C247.293,222.959 247.361,317.528 247.361,325.562C247.361,333.756 246.396,361.576 263.316,378.955C274.462,390.402 291.159,396.205 312.946,396.205L312.953,396.205C317.527,396.205 322.383,395.947 327.425,395.437C349.346,424.812 375.246,429.261 388.905,429.261C415.288,429.261 438.582,413.063 440.832,393.153C445.937,347.912 435.295,300.951 409.201,253.58Z" style="fill:rgb(243,204,204);fill-rule:nonzero;"/>
                                                <path d="M252.266,157.584C250.605,156.66 242.415,151.812 242.415,146.034L242.415,18.834C242.415,14.258 239.137,12.814 236.395,12.814L205.721,12.814C201.655,12.814 199.657,14.243 199.657,18.834L199.657,146.034C199.657,152.313 190.977,156.994 189.677,157.66C193.015,175.062 192.506,192.926 194.846,210.296C196.22,202.674 215.402,182.141 221.036,182.141C226.882,182.141 247.33,203.07 247.309,211.099C247.309,211.256 247.308,211.461 247.308,211.686C250.926,194.049 253.074,175.85 252.266,157.584Z" style="fill:rgb(224,220,211);fill-rule:nonzero;"/>
                                            </g>
                                        </g>
                                    </g>
                                </g>
                            </g>
                        </g>
                        <g transform="matrix(0.120202,0,0,0.120202,3111.64,276.161)">
                            <g transform="matrix(1.76256,0,0,1.76256,-689.154,-443.008)">
                                <circle cx="935.797" cy="557.637" r="112.616" style="fill:white;"/>
                            </g>
                            <path d="M795.591,488.647L909.03,488.647L909.03,375.208L1011.46,375.208L1011.46,488.647L1124.89,488.647L1124.89,591.072L1011.46,591.072L1011.46,704.511L909.03,704.511L909.03,591.072L795.591,591.072L795.591,488.647Z" style="fill:rgb(255,100,111);"/>
                        </g>
                        <g id="drug" transform="matrix(0.101874,0,0,0.101874,3107.52,341.054)">
                            <g transform="matrix(1,0,0,1,-256,-256)">
                                <clipPath id="_clip4">
                                    <rect x="0" y="0" width="512" height="512"/>
                                </clipPath>
                                <g clip-path="url(#_clip4)">
                                    <path d="M168.352,142.918C129.898,104.469 67.336,104.469 28.883,142.922C10.258,161.547 0,186.313 0,212.652C0,238.996 10.258,263.762 28.883,282.387C48.109,301.613 73.363,311.227 98.617,311.227C123.871,311.227 149.125,301.613 168.352,282.387C206.801,243.937 206.801,181.371 168.352,142.918Z" style="fill:rgb(255,208,57);fill-rule:nonzero;"/>
                                    <path d="M168.352,247.305C149.125,266.531 123.871,276.145 98.617,276.145C73.363,276.145 48.109,266.531 28.883,247.305C14.461,232.883 5.059,214.777 1.551,195.113C0.527,200.844 0,206.707 0,212.652C0,238.996 10.258,263.762 28.883,282.387C48.109,301.613 73.363,311.227 98.617,311.227C123.871,311.227 149.125,301.613 168.352,282.387C192.047,258.691 201.117,225.84 195.605,195.113C192.176,214.242 183.105,232.551 168.352,247.305Z" style="fill:rgb(255,174,71);fill-rule:nonzero;"/>
                                    <path d="M354.766,16.609C333.176,6.406 304.516,0.52 274.063,0.031C243.621,-0.449 214.777,4.516 192.871,14.023C169.066,24.359 155.813,39.109 155.551,55.555C155.289,72 168.066,87.164 191.527,98.254C213.117,108.457 241.777,114.344 272.23,114.828C273.594,114.852 274.953,114.863 276.309,114.863C305.25,114.863 332.496,109.922 353.418,100.836C377.227,90.504 390.48,75.754 390.742,59.309C391.004,42.863 378.227,27.699 354.766,16.609Z" style="fill:rgb(255,149,34);fill-rule:nonzero;"/>
                                    <path d="M353.418,66.723C332.496,75.805 305.25,80.746 276.309,80.746C274.953,80.746 273.594,80.734 272.23,80.711C241.777,80.227 213.117,74.34 191.527,64.137C176.75,57.152 166.215,48.547 160.504,39.027C157.332,44.25 155.645,49.797 155.551,55.555C155.289,72 168.066,87.164 191.527,98.254C213.117,108.457 241.777,114.344 272.23,114.832C273.594,114.852 274.953,114.863 276.309,114.863C305.25,114.863 332.496,109.922 353.418,100.84C377.227,90.504 390.48,75.754 390.742,59.309C390.84,53.223 389.148,47.313 385.793,41.719C379.902,51.418 368.895,60.004 353.418,66.723Z" style="fill:rgb(221,121,23);fill-rule:nonzero;"/>
                                    <path d="M388.762,388.762L484.133,293.516C502.086,275.586 511.984,251.734 512,226.359C512.016,200.984 502.148,177.121 484.219,159.168C466.289,141.211 442.438,131.313 417.063,131.297L416.996,131.297C391.645,131.297 367.809,141.164 349.867,159.078L254.496,254.324C254.469,254.352 254.441,254.387 254.414,254.414L388.762,388.762Z" style="fill:rgb(233,50,52);fill-rule:nonzero;"/>
                                    <path d="M254.414,254.414C254.441,254.383 254.465,254.352 254.496,254.324L159.121,349.57C141.168,367.504 131.27,391.352 131.254,416.727C131.234,442.105 141.102,465.969 159.035,483.922C176.965,501.879 200.816,511.773 226.191,511.793L226.254,511.793C251.605,511.793 275.445,501.926 293.387,484.012L388.758,388.766C388.758,388.762 388.758,388.762 388.762,388.762L254.414,254.414Z" style="fill:rgb(249,241,239);fill-rule:nonzero;"/>
                                    <path d="M512,226.359C512.016,200.984 502.148,177.121 484.219,159.168C480.168,155.113 475.813,151.473 471.211,148.258C482.246,164.07 488.184,182.844 488.172,202.531C488.152,227.906 478.258,251.758 460.301,269.688L364.934,364.93L388.762,388.762L484.133,293.516C502.086,275.586 511.984,251.734 512,226.359Z" style="fill:rgb(191,22,28);fill-rule:nonzero;"/>
                                    <path d="M388.762,388.762L364.93,364.93L364.93,364.934L269.555,460.184C251.613,478.098 227.777,487.961 202.426,487.961L202.363,487.961C182.719,487.949 163.988,482.012 148.211,471C151.402,475.57 155.012,479.898 159.031,483.922C176.965,501.879 200.813,511.777 226.191,511.793L226.254,511.793C251.605,511.793 275.445,501.93 293.383,484.012L388.758,388.766C388.758,388.762 388.758,388.762 388.762,388.762Z" style="fill:rgb(204,204,204);fill-rule:nonzero;"/>
                                    <path d="M168.352,142.918C166.566,141.133 164.711,139.457 162.824,137.84L23.777,276.887C25.402,278.773 27.105,280.609 28.883,282.387C30.672,284.176 32.523,285.848 34.41,287.469L173.434,148.445C171.813,146.562 170.137,144.707 168.352,142.918Z" style="fill:rgb(255,149,34);fill-rule:nonzero;"/>
                                    <path d="M266.133,0.047L265.242,114.613C267.559,114.715 269.887,114.793 272.23,114.832C273.594,114.852 274.949,114.863 276.305,114.863C277.625,114.863 278.93,114.84 280.242,114.82L281.133,0.254C278.789,0.152 276.434,0.07 274.063,0.031C271.406,-0.008 268.762,0.004 266.133,0.047Z" style="fill:rgb(221,121,23);fill-rule:nonzero;"/>
                                </g>
                            </g>
                        </g>
                    </g>
                </g>
            </g>
        </g>
    </g>
</svg>
