<?xml version="1.0" encoding="UTF-8" standalone="no"?>
<!DOCTYPE svg PUBLIC "-//W3C//DTD SVG 1.1//EN" "http://www.w3.org/Graphics/SVG/1.1/DTD/svg11.dtd">
<svg width="100%" height="100%" viewBox="0 0 1920 1080" version="1.1" xmlns="http://www.w3.org/2000/svg" xmlns:xlink="http://www.w3.org/1999/xlink" xml:space="preserve" xmlns:serif="http://www.serif.com/" style="fill-rule:evenodd;clip-rule:evenodd;stroke-linejoin:round;stroke-miterlimit:2;">
    <g transform="matrix(1,0,0,1,-2038.93,0)">
        <g id="Final-Logo" serif:id="Final Logo" transform="matrix(1,0,0,1,2038.93,0)">
            <rect x="0" y="0" width="1920" height="1080" style="fill:none;"/>
            <g transform="matrix(4.08228,0,-1.24808,4.08228,-1604.99,-746.078)">
                <text x="752.23px" y="284.527px" style="font-family:'Roboto-Medium', 'Roboto';font-weight:500;font-size:57.697px;fill:rgb(71,71,71);">SIM</text>
            </g>
            <g transform="matrix(4.08228,0,-1.24808,4.08228,-1667.6,-538.518)">
                <text x="752.23px" y="284.527px" style="font-family:'Roboto-Medium', 'Roboto';font-weight:500;font-size:57.697px;fill:rgb(71,71,71);">THINK</text>
            </g>
            <g transform="matrix(4.08228,0,-1.24808,4.08228,-1731.67,-330.959)">
                <text x="752.23px" y="284.527px" style="font-family:'Roboto-Medium', 'Roboto';font-weight:500;font-size:57.697px;fill:rgb(71,71,71);">A<tspan x="788.544px 824.351px " y="284.527px 284.527px ">CT</tspan></text>
            </g>
            <g transform="matrix(1,0,0,1,-2038.93,0)">
                <path d="M2403.62,710.013C2359.97,836.542 2324.97,933.294 2324.97,933.294C2324.97,933.294 2349.31,836.51 2383.06,710.076L2403.62,710.013ZM2498.83,405.336C2492.72,427.504 2486.34,450.239 2479.73,473.237C2473.62,494.515 2467.33,516.01 2460.74,537.414C2454.15,558.819 2447.25,580.123 2440.35,601.16C2433.56,621.842 2426.75,642.238 2420,662.147L2395.94,662.221C2402.06,639.77 2408.44,616.736 2415.05,593.427C2421.09,572.127 2427.28,550.606 2433.79,529.174C2440.3,507.745 2447.11,486.41 2453.93,465.351C2460.53,445.033 2467.15,424.987 2473.71,405.413L2498.83,405.336ZM2489.97,357.548C2506.81,308.564 2522.64,264.149 2535.53,227.863C2556.09,169.972 2569.56,133.294 2569.56,133.294C2569.56,133.294 2560.21,171.232 2544.89,230.725C2535.68,266.457 2524.54,309.886 2511.81,357.481L2489.97,357.548Z" style="fill:rgb(71,71,71);"/>
            </g>
            <g transform="matrix(1,0,0,1,-2038.93,0)">
                <path d="M2721.79,709.037C2678.19,835.391 2643.26,931.963 2643.26,931.963C2643.26,931.963 2667.56,835.361 2701.26,709.1L2721.79,709.037ZM2817.02,404.361C2810.94,426.421 2804.59,449.033 2798.02,471.906C2791.91,493.184 2785.62,514.678 2779.03,536.082C2772.44,557.488 2765.54,578.792 2758.64,599.829C2751.81,620.635 2744.96,641.152 2738.18,661.171L2714.14,661.245C2720.28,638.681 2726.7,615.528 2733.34,592.096C2739.38,570.795 2745.58,549.274 2752.08,527.843C2758.59,506.413 2765.39,485.078 2772.23,464.02C2778.78,443.822 2785.36,423.895 2791.88,404.438L2817.02,404.361ZM2808.14,356.572C2825.03,307.444 2840.9,262.905 2853.82,226.532C2874.38,168.64 2887.85,131.963 2887.85,131.963C2887.85,131.963 2878.5,169.9 2863.18,229.394C2853.95,265.215 2842.78,308.771 2830,356.505L2808.14,356.572Z" style="fill:rgb(71,71,71);"/>
            </g>
            <g transform="matrix(1.07569,0,0,1,-35.6053,0)">
                <path d="M230.709,380.961C230.709,380.961 265.385,383.115 319.955,385.853C357.05,387.714 403.163,390.086 453.823,391.948C482.452,393.001 512.468,393.864 543.069,394.447C562.748,394.823 582.655,395.095 602.565,395.051C622.477,395.007 642.383,394.636 662.062,394.185C692.666,393.485 722.676,392.513 751.307,391.396C876.438,386.514 974.421,380.961 974.421,380.961C974.421,380.961 876.438,375.407 751.307,370.525C722.676,369.408 692.666,368.436 662.062,367.736C642.383,367.285 622.477,366.914 602.565,366.87C582.655,366.826 562.747,367.098 543.069,367.474C512.467,368.057 482.452,368.92 453.823,369.973C403.163,371.835 357.05,374.207 319.955,376.068C265.385,378.806 230.709,380.961 230.709,380.961Z" style="fill:rgb(71,71,71);"/>
            </g>
            <g transform="matrix(1.07569,0,0,1,-127.731,304.667)">
                <path d="M230.709,380.961C230.709,380.961 265.385,383.115 319.955,385.853C357.05,387.714 403.163,390.086 453.823,391.948C482.452,393.001 512.468,393.864 543.069,394.447C562.748,394.823 582.655,395.095 602.565,395.051C622.477,395.007 642.383,394.636 662.062,394.185C692.666,393.485 722.676,392.513 751.307,391.396C876.438,386.514 974.421,380.961 974.421,380.961C974.421,380.961 876.438,375.407 751.307,370.525C722.676,369.408 692.666,368.436 662.062,367.736C642.383,367.285 622.477,366.914 602.565,366.87C582.655,366.826 562.747,367.098 543.069,367.474C512.467,368.057 482.452,368.92 453.823,369.973C403.163,371.835 357.05,374.207 319.955,376.068C265.385,378.806 230.709,380.961 230.709,380.961Z" style="fill:rgb(71,71,71);"/>
            </g>
            <g transform="matrix(0.289032,-0.957319,1.04569,-0.00365015,-201.321,1098.89)">
                <circle cx="594.133" cy="569.06" r="101.569" style="fill:rgb(255,100,111);"/>
            </g>
            <g transform="matrix(0.256111,-0.848281,0.926582,-0.00323439,-22.0746,745.709)">
                <circle cx="594.133" cy="569.06" r="101.569" style="fill:rgb(139,202,255);"/>
            </g>
            <g transform="matrix(0.256111,-0.848281,0.926582,-0.00323439,-447.764,1033.87)">
                <circle cx="594.133" cy="569.06" r="101.569" style="fill:rgb(139,202,255);"/>
            </g>
            <g transform="matrix(0.256111,-0.848281,0.926582,-0.00323439,219.794,1033.87)">
                <circle cx="594.133" cy="569.06" r="101.569" style="fill:rgb(139,202,255);"/>
            </g>
            <g transform="matrix(0.256111,-0.848281,0.926582,-0.00323439,-201.852,1338.54)">
                <circle cx="594.133" cy="569.06" r="101.569" style="fill:rgb(139,202,255);"/>
            </g>
        </g>
    </g>
</svg>
