<?xml version="1.0" encoding="UTF-8" standalone="no"?>
<!DOCTYPE svg PUBLIC "-//W3C//DTD SVG 1.1//EN" "http://www.w3.org/Graphics/SVG/1.1/DTD/svg11.dtd">
<svg width="100%" height="100%" viewBox="0 0 364 140" version="1.1" xmlns="http://www.w3.org/2000/svg" xmlns:xlink="http://www.w3.org/1999/xlink" xml:space="preserve" xmlns:serif="http://www.serif.com/" style="fill-rule:evenodd;clip-rule:evenodd;stroke-miterlimit:1.5;">
    <g transform="matrix(1,0,0,1,-3228.06,-1372.28)">
        <g transform="matrix(1,0,0,1,2499.79,0)">
            <g transform="matrix(1,0,0,1,0,936.585)">
                <g transform="matrix(1.00575,0,0,1,-2520.39,1.8437)">
                    <path d="M3430.98,503.856L3579.79,503.856" style="fill:none;stroke:white;stroke-width:12.89px;"/>
                </g>
                <g transform="matrix(3.26788,0,0,1.88455,-9877.74,-552.324)">
                    <path d="M3317.67,540.511C3317.67,536.997 3316.03,534.144 3314,534.144L3256.98,534.144C3254.96,534.144 3253.31,536.997 3253.31,540.511L3253.31,582.328C3253.31,585.843 3254.96,588.696 3256.98,588.696L3314,588.696C3316.03,588.696 3317.67,585.843 3317.67,582.328L3317.67,540.511Z" style="fill:rgb(115,115,115);"/>
                    <path d="M3320.12,540.511C3320.12,534.654 3317.38,529.899 3314,529.899C3314,529.899 3256.98,529.899 3256.98,529.899C3253.61,529.899 3250.86,534.654 3250.86,540.511L3250.86,582.328C3250.86,588.186 3253.61,592.941 3256.98,592.941C3256.98,592.941 3314,592.941 3314,592.941C3317.38,592.941 3320.12,588.186 3320.12,582.328C3320.12,582.328 3320.12,540.511 3320.12,540.511ZM3317.67,540.511C3317.67,536.997 3316.03,534.144 3314,534.144L3256.98,534.144C3254.96,534.144 3253.31,536.997 3253.31,540.511L3253.31,582.328C3253.31,585.843 3254.96,588.696 3256.98,588.696L3314,588.696C3316.03,588.696 3317.67,585.843 3317.67,582.328L3317.67,540.511Z" style="fill:white;"/>
                </g>
            </g>
        </g>
        <g transform="matrix(1,0,0,1,2499.79,0)">
            <g transform="matrix(1.652,0,0,1.23977,-6900.37,738.941)">
                <rect x="4617.82" y="510.855" width="211.864" height="112.924" style="fill:none;"/>
            </g>
        </g>
    </g>
</svg>
