<?xml version="1.0" encoding="UTF-8" standalone="no"?>
<!DOCTYPE svg PUBLIC "-//W3C//DTD SVG 1.1//EN" "http://www.w3.org/Graphics/SVG/1.1/DTD/svg11.dtd">
<svg width="100%" height="100%" viewBox="0 0 428 439" version="1.1" xmlns="http://www.w3.org/2000/svg" xmlns:xlink="http://www.w3.org/1999/xlink" xml:space="preserve" xmlns:serif="http://www.serif.com/" style="fill-rule:evenodd;clip-rule:evenodd;stroke-linejoin:round;stroke-miterlimit:2;">
    <g transform="matrix(1,0,0,1,-1637.88,-296.11)">
        <g transform="matrix(1,0,0,1,1311.45,0)">
            <g transform="matrix(0.750409,-0.134339,0.134339,0.750409,-50.5606,-329.196)">
                <path d="M565.148,1027.28C577.34,1025.69 585.91,996.402 592.333,974.94C593.636,970.669 592.985,966.04 590.554,962.294C590.555,962.293 590.555,962.293 590.555,962.292C586.514,956.062 587.752,948.073 593.318,944.462C598.885,940.851 606.685,942.978 610.726,949.208C614.768,955.438 613.529,963.427 607.963,967.038C607.81,967.137 607.655,967.232 607.499,967.323C603.578,969.621 600.9,973.562 600.207,978.054C596.778,999.509 592.963,1027.24 604.988,1031C606.619,1031.33 608.249,1031.68 609.875,1032.06C620.313,1034.44 630.425,1037.69 640.131,1041.71L640.151,1041.72L640.184,1041.74L640.238,1041.76L640.272,1041.77C641.6,1042.32 642.921,1042.88 644.237,1043.46C654.292,1047.9 676.097,1019.69 693.766,996.548C699.122,989.599 702.103,981.112 702.267,972.34C702.272,969.519 703.267,966.802 705.259,964.701C709.824,959.887 717.905,960.126 723.294,965.235C728.682,970.345 729.351,978.402 724.786,983.217C723.773,984.284 722.588,985.103 721.298,985.676C713.221,989.23 706.51,995.301 702.168,1002.98C688.002,1027.76 672.099,1058.09 682.807,1066.28C689.451,1071.36 695.836,1076.93 701.911,1083.01C706.934,1088.03 717.792,1081.97 727.511,1075.62C731.783,1072.86 734.703,1068.43 735.566,1063.42C735.843,1061.82 736.553,1060.32 737.711,1059.1C741.139,1055.48 747.208,1055.66 751.255,1059.5C755.301,1063.34 755.803,1069.39 752.375,1073C750.938,1074.52 749.037,1075.37 747.016,1075.56C742.267,1076 737.881,1078.29 734.803,1081.94C726.934,1091.12 718.66,1101.88 723.047,1108.11C726.725,1113.33 730.11,1118.7 733.202,1124.19C741.73,1139.33 768.335,1133.94 789.95,1128.48C795.902,1127.01 800.826,1122.85 803.256,1117.22C803.751,1116.08 804.443,1115.02 805.334,1114.08C809.899,1109.27 817.98,1109.5 823.369,1114.61C828.758,1119.72 829.426,1127.78 824.861,1132.6C822.26,1135.34 818.52,1136.44 814.786,1135.94C810.611,1135.39 806.371,1136.2 802.695,1138.26C782.353,1149.37 752.001,1164.23 753.556,1178.21C755.104,1185.56 756.226,1193.06 756.897,1200.7C759.038,1216.91 790.746,1220.63 813.051,1223.92C819.782,1225.01 826.654,1223.1 831.865,1218.7C833.715,1217.14 835.992,1216.17 838.49,1216.04C845.116,1215.69 850.81,1221.43 851.198,1228.85C851.586,1236.26 846.522,1242.56 839.896,1242.91C836.864,1243.07 834.027,1241.95 831.805,1239.99C827.41,1236.09 821.713,1234 815.845,1234.11C793.409,1234.16 758.484,1233.92 753.449,1257.38C753.277,1258.19 753.099,1258.99 752.916,1259.79L752.89,1259.9L752.848,1260.09L752.843,1260.11C750.442,1270.59 747.175,1280.75 743.122,1290.49C739.126,1300.13 734.304,1309.52 728.655,1318.53C723.978,1327.47 740.79,1344.55 753.396,1357.56C756.86,1361.18 761.9,1362.86 766.847,1362.02C767.161,1361.92 767.487,1361.88 767.818,1361.85C774.432,1361.31 780.288,1366.89 780.887,1374.29C781.487,1381.69 776.605,1388.14 769.992,1388.67C763.378,1389.21 757.522,1383.63 756.922,1376.23C756.618,1372.48 754.618,1369.07 751.49,1366.98C736.267,1356.57 713.534,1339.96 705.46,1348.47C700.37,1353.84 694.997,1358.87 689.378,1363.55C683.654,1368.33 693.762,1385.69 700.834,1398C702.145,1400.3 704.524,1401.8 707.172,1401.99C707.683,1402.03 708.199,1402.1 708.716,1402.22C713.676,1403.36 716.874,1407.89 715.853,1412.32C714.832,1416.75 709.977,1419.42 705.017,1418.28C700.056,1417.14 696.858,1412.61 697.879,1408.18C697.963,1407.82 698.074,1407.46 698.208,1407.12C699.2,1404.64 698.874,1401.83 697.34,1399.64C689.531,1388.36 678.728,1373.1 672.191,1376.35C661.985,1383.09 651.27,1388.75 640.201,1393.33C637.528,1394.44 634.823,1395.49 632.087,1396.48C621.241,1402.17 622.797,1432.5 623.803,1454.79C623.982,1459.26 626.123,1463.41 629.652,1466.15C629.651,1466.15 629.652,1466.15 629.652,1466.15C635.521,1470.7 636.986,1478.65 632.921,1483.89C628.856,1489.14 620.79,1489.7 614.921,1485.15C609.052,1480.6 607.588,1472.65 611.653,1467.41C611.764,1467.26 611.879,1467.12 611.997,1466.99C614.941,1463.52 616.17,1458.92 615.344,1454.45C611.491,1432.97 605.919,1405.38 593.199,1406.04C588.579,1406.67 583.904,1407.13 579.181,1407.42C570.243,1407.99 561.231,1407.93 552.212,1407.21C541.258,1406.34 529.972,1440.16 520.918,1467.83C518.152,1476.16 518.135,1485.15 520.871,1493.49C521.798,1496.15 521.754,1499.05 520.566,1501.69C517.843,1507.74 510.134,1510.17 503.363,1507.13C496.591,1504.08 493.304,1496.69 496.027,1490.64C496.63,1489.3 497.479,1488.14 498.509,1487.17C504.963,1481.15 509.297,1473.21 510.865,1464.53C516.005,1436.83 520.958,1403.45 508.76,1398.56C503.942,1397 499.208,1395.25 494.57,1393.33C491.05,1391.87 487.565,1390.31 484.119,1388.63C477.812,1386.38 469.852,1395.39 462.993,1404.31C459.872,1408.32 458.573,1413.46 459.411,1418.48C459.676,1420.08 459.5,1421.73 458.809,1423.26C456.765,1427.81 450.976,1429.64 445.89,1427.35C440.805,1425.06 438.336,1419.51 440.381,1414.97C441.238,1413.07 442.753,1411.64 444.598,1410.79C448.936,1408.81 452.322,1405.2 454.026,1400.74C458.426,1389.48 462.692,1376.59 456.497,1372.16C451.302,1368.44 446.337,1364.49 441.609,1360.32C428.565,1348.84 405.226,1362.7 386.62,1374.98C381.483,1378.33 378.206,1383.88 377.767,1390C377.676,1391.24 377.373,1392.47 376.842,1393.65C374.119,1399.7 366.411,1402.14 359.639,1399.09C352.867,1396.04 349.58,1388.65 352.303,1382.6C353.854,1379.16 357.022,1376.88 360.713,1376.13C364.835,1375.27 368.57,1373.1 371.363,1369.95C386.222,1353.51 408.587,1330.82 405.216,1317.77C395.462,1309.66 361.604,1322.12 339.172,1329.29C335.851,1330.33 333.246,1332.92 332.192,1336.24L332.19,1336.24C328.75,1347.05 319.141,1353.66 310.746,1350.99C302.35,1348.32 298.327,1337.38 301.767,1326.56C305.207,1315.75 314.816,1309.14 323.212,1311.81C324.2,1312.12 325.128,1312.55 325.99,1313.08C331.579,1316.57 338.661,1316.61 344.283,1313.17C364.429,1301.07 388.502,1286.11 385.944,1274.87C383.5,1267.14 381.536,1259.19 380.09,1251.07C375.766,1233.54 352.242,1230.41 335.533,1227.88C329.579,1226.87 323.481,1228.49 318.812,1232.32C317.032,1233.78 314.868,1234.71 312.49,1234.87C305.87,1235.32 300.087,1229.67 299.583,1222.26C299.079,1214.85 304.044,1208.47 310.664,1208.02C313.401,1207.83 315.996,1208.69 318.133,1210.29C322.974,1213.89 329.137,1215.22 335.033,1213.94C351.665,1210.63 375.303,1206.89 379.015,1190.62C379.745,1185.5 380.69,1180.39 381.851,1175.3L381.881,1175.17L381.914,1175.02L381.923,1174.99C382.264,1173.5 382.622,1172.02 382.996,1170.54C385.74,1154.71 357.358,1140.89 337.555,1130.53C331.559,1127.28 324.445,1126.81 318.075,1129.25C315.814,1130.11 313.343,1130.28 310.941,1129.58C304.571,1127.72 301.087,1120.43 303.165,1113.3C305.244,1106.17 312.102,1101.89 318.472,1103.75C321.387,1104.6 323.697,1106.59 325.147,1109.17C328.014,1114.3 332.701,1118.15 338.279,1119.98C359.477,1127.33 392.371,1139.07 404.859,1118.58C407.171,1114.79 409.628,1111.06 412.231,1107.4C422.568,1092.8 434.739,1080 448.261,1069.17C455.932,1062.43 445.599,1040.57 437.93,1024.02C435.856,1019.46 431.649,1016.22 426.702,1015.38C426.373,1015.37 426.051,1015.3 425.73,1015.21C419.309,1013.54 415.618,1006.35 417.492,999.162C419.366,991.976 426.099,987.502 432.52,989.176C438.94,990.85 442.631,998.043 440.758,1005.23L440.757,1005.23C439.808,1008.87 440.573,1012.75 442.836,1015.75C453.777,1030.6 469.763,1053.78 480.191,1048.4C484.862,1046 489.613,1043.8 494.428,1041.8L494.644,1041.71C496.615,1040.89 498.602,1040.11 500.606,1039.36C507.228,1036.35 503.471,1016.95 500.885,1003.17C500.408,1000.56 498.657,998.36 496.218,997.31C495.747,997.109 495.286,996.866 494.837,996.583C490.531,993.869 489.003,988.543 491.428,984.695C493.853,980.847 499.317,979.927 503.623,982.64C507.93,985.354 509.457,990.681 507.033,994.529C506.832,994.846 506.612,995.144 506.372,995.421C504.618,997.437 503.998,1000.2 504.725,1002.77C508.374,1015.97 513.53,1033.91 520.754,1033.06C531.975,1030.22 543.591,1028.39 555.502,1027.65C558.709,1027.45 561.925,1027.33 565.148,1027.28Z" style="fill:rgb(255,100,111);"/>
            </g>
        </g>
        <g transform="matrix(1,0,0,1,1311.45,0)">
            <g transform="matrix(1.63682,0,0,1.63682,-2466.69,-269.732)">
                <text x="1763.2px" y="491.413px" style="font-family:'LemonMilkbold', 'Lemon/Milk', sans-serif;font-weight:700;font-size:30px;fill:white;">C<tspan x="1785.31px 1809.49px 1834.6px " y="491.413px 491.413px 491.413px ">OVI</tspan>D-19</text>
            </g>
        </g>
    </g>
</svg>
